<svg width="30" height="29" viewBox="0 0 30 29" fill="none" xmlns="http://www.w3.org/2000/svg">
<path d="M22.1256 3.08199C21.9333 3.16754 20.2268 4.10864 18.34 5.17196C16.4532 6.23528 14.6745 7.17637 14.3861 7.27415C13.9895 7.39637 12.8478 7.43304 9.9034 7.43304C7.25946 7.43304 5.75722 7.48193 5.38466 7.5797C4.6035 7.77525 3.65408 8.7408 3.46179 9.53523C3.26951 10.2808 3.26951 15.3163 3.44978 16.0496C3.67812 16.9662 4.50735 17.7607 5.613 18.1029C5.75722 18.1518 5.9495 18.9706 6.45426 21.5128C7.03112 24.5195 7.12726 24.8861 7.42771 25.1794L7.74018 25.5217H9.5669C11.3335 25.5217 11.3816 25.5094 11.6821 25.2161C12.0186 24.8739 12.0186 25.3383 11.67 20.694C11.5739 19.4229 11.4898 18.3351 11.4898 18.2862C11.4898 18.1273 14.0376 18.1884 14.5183 18.3595C14.8668 18.4818 17.0421 19.6673 19.6019 21.1217C22.402 22.7106 22.8107 22.845 23.2553 22.2706C23.4957 21.965 23.5077 21.7939 23.5077 18.9951V16.0496L24.7095 15.3163L25.9113 14.5952V11.0385L24.7095 10.3052L23.5077 9.58412V3.61976L23.1592 3.26532C22.7626 2.87421 22.6424 2.84977 22.1256 3.08199ZM22.5463 12.8107C22.5463 17.6507 22.5102 21.6106 22.4742 21.6106C22.4141 21.6106 18.0395 19.1906 16.1768 18.1273C15.1192 17.5162 14.5543 17.3207 13.653 17.2229L12.992 17.1496V8.47191L13.8092 8.38636C14.8187 8.28858 15.2273 8.09303 19.2413 5.80751C20.9599 4.81752 22.402 4.02309 22.4621 4.01086C22.5102 4.01086 22.5463 7.97081 22.5463 12.8107ZM11.9705 12.823V17.2229L8.82179 17.1862C5.32457 17.1496 5.16834 17.1129 4.61551 16.3307C4.3391 15.9396 4.3391 15.8785 4.3391 12.8107C4.3391 9.743 4.3391 9.68189 4.61551 9.29079C5.20439 8.47191 5.42072 8.42302 8.88188 8.4108H11.9705V12.823ZM24.2889 11.2341L24.9498 11.613V14.0329L24.5052 14.314C24.2528 14.4729 23.9283 14.6685 23.7841 14.754L23.5077 14.9007V12.8718C23.5077 11.7596 23.5317 10.8552 23.5678 10.8552C23.6038 10.8552 23.9283 11.0263 24.2889 11.2341ZM10.5884 18.3351C10.6605 18.5673 10.961 24.4339 10.9009 24.495C10.7927 24.5928 8.13677 24.5439 8.07668 24.4339C8.01659 24.3483 6.80278 18.3962 6.80278 18.2251C6.80278 18.2007 7.64403 18.1884 8.66556 18.1884C10.0596 18.1884 10.5524 18.2251 10.5884 18.3351Z" fill="currentColor" stroke="currentColor" stroke-width="0.5" stroke-linecap="round" stroke-linejoin="round"/>
</svg>
