<svg width="25" height="25" viewBox="0 0 25 25" fill="none" xmlns="http://www.w3.org/2000/svg">
<path d="M22.387 5.16994V17.24C22.387 18.2 21.607 19.0999 20.647 19.2199L20.317 19.26C18.137 19.55 14.7769 20.6599 12.8569 21.7199C12.5969 21.8699 12.167 21.8699 11.897 21.7199L11.8569 21.7C9.93693 20.65 6.58699 19.55 4.41699 19.26L4.12695 19.2199C3.16695 19.0999 2.38696 18.2 2.38696 17.24V5.15993C2.38696 3.96993 3.35694 3.06994 4.54694 3.16994C6.64694 3.33994 9.82693 4.39997 11.6069 5.50997L11.8569 5.65993C12.1469 5.83994 12.627 5.83994 12.917 5.65993L13.087 5.54995C13.717 5.15995 14.517 4.76994 15.387 4.41994V8.49996L17.387 7.16994L19.387 8.49996V3.27999C19.657 3.22999 19.917 3.19995 20.157 3.17995H20.217C21.407 3.07995 22.387 3.96994 22.387 5.16994Z" stroke="currentColor" stroke-width="1.5" stroke-linecap="round" stroke-linejoin="round"/>
<path d="M12.387 5.99023V20.9902" stroke="currentColor" stroke-width="1.5" stroke-linecap="round" stroke-linejoin="round"/>
<path d="M19.387 3.28027V8.50024L17.387 7.17023L15.387 8.50024V4.42023C16.697 3.90023 18.157 3.48027 19.387 3.28027Z" stroke="currentColor" stroke-width="1.5" stroke-linecap="round" stroke-linejoin="round"/>
</svg>
