<svg width="24" height="25" viewBox="0 0 24 25" fill="none" xmlns="http://www.w3.org/2000/svg">
<path d="M2 19.2881C2 20.9881 3.3 22.2881 5 22.2881H19C20.7 22.2881 22 20.9881 22 19.2881V11.2881H2V19.2881ZM19 4.28809H17V3.28809C17 2.68809 16.6 2.28809 16 2.28809C15.4 2.28809 15 2.68809 15 3.28809V4.28809H9V3.28809C9 2.68809 8.6 2.28809 8 2.28809C7.4 2.28809 7 2.68809 7 3.28809V4.28809H5C3.3 4.28809 2 5.58809 2 7.28809V9.28809H22V7.28809C22 5.58809 20.7 4.28809 19 4.28809Z" fill="currentColor"/>
</svg>
