<svg width="25" height="25" viewBox="0 0 25 25" fill="none" xmlns="http://www.w3.org/2000/svg">
<path d="M12.3869 10.1785V12.9685L13.7869 14.3685" stroke="currentColor" stroke-width="1.5" stroke-linecap="round" stroke-linejoin="round"/>
<path d="M5.8869 12.5186C5.8869 8.92855 8.7969 6.01855 12.3869 6.01855C15.9769 6.01855 18.8869 8.92855 18.8869 12.5186C18.8869 14.5986 17.9069 16.4586 16.3869 17.6486H16.3769C15.2769 18.5086 13.8969 19.0186 12.3869 19.0186C10.8969 19.0186 9.5269 18.5186 8.4269 17.6686H8.4169C6.8769 16.4786 5.8869 14.6186 5.8869 12.5186Z" stroke="currentColor" stroke-width="1.5" stroke-linecap="round" stroke-linejoin="round"/>
<path d="M8.41718 17.6684H8.42718C9.52718 18.5184 10.8972 19.0184 12.3872 19.0184C13.8972 19.0184 15.2772 18.5084 16.3772 17.6484H16.3872L15.8772 20.1184C15.3872 22.0184 14.2872 22.5184 12.9372 22.5184H11.8472C10.4972 22.5184 9.38718 22.0184 8.90718 20.1084L8.41718 17.6684Z" stroke="currentColor" stroke-width="1.5" stroke-linecap="round" stroke-linejoin="round"/>
<path d="M8.41718 7.36855H8.42718C9.52718 6.51855 10.8972 6.01855 12.3872 6.01855C13.8972 6.01855 15.2772 6.52855 16.3772 7.38855H16.3872L15.8772 4.91855C15.3872 3.01855 14.2872 2.51855 12.9372 2.51855H11.8472C10.4972 2.51855 9.38718 3.01855 8.90718 4.92855L8.41718 7.36855Z" stroke="currentColor" stroke-width="1.5" stroke-linecap="round" stroke-linejoin="round"/>
</svg>
