<?xml version="1.0" encoding="UTF-8"?>
<svg width="512px" height="512px" viewBox="0 0 512 512" version="1.1" xmlns="http://www.w3.org/2000/svg" xmlns:xlink="http://www.w3.org/1999/xlink">
    <g id="Page-1" stroke="none" stroke-width="1" fill="none" fill-rule="evenodd">
        <g id="cookie" fill="currentColor" fill-rule="nonzero">
            <path d="M501.791,236.285 C468.858,224.458 448.602,190.943 451.147,164.478 C451.147,160.127 448.54,156.084 445.244,153.228 C441.948,150.386 436.836,149.156 432.558,149.844 C382.372,157.207 336.418,120.492 331.865,68.882 C331.455,64.224 328.906,60.034 324.951,57.529 C321.011,55.039 316.103,54.497 311.753,56.123 C271.074,71.02 232.637,44.084 217.3,8.986 C214.429,2.423 207.31,-1.195 200.293,0.358 C84.82,26.125 0.001,137.657 0.001,256.002 C0.001,396.612 115.391,512.002 256.001,512.002 C396.611,512.002 512.001,396.612 512.001,256.002 C511.584,247.068 511.522,239.771 501.791,236.285 Z M105.251,272.131 C96.967,272.131 90.251,265.415 90.251,257.131 C90.251,248.845 96.967,242.131 105.251,242.131 C113.535,242.131 120.251,248.845 120.251,257.131 C120.251,265.415 113.534,272.131 105.251,272.131 Z M166.001,391.002 C141.187,391.002 121.001,370.816 121.001,346.002 C121.001,321.188 141.187,301.002 166.001,301.002 C190.815,301.002 211.001,321.188 211.001,346.002 C211.001,370.816 190.816,391.002 166.001,391.002 Z M181.001,211.002 C164.463,211.002 151.001,197.54 151.001,181.002 C151.001,164.464 164.463,151.002 181.001,151.002 C197.539,151.002 211.001,164.464 211.001,181.002 C211.001,197.54 197.539,211.002 181.001,211.002 Z M301.001,421.002 C284.463,421.002 271.001,407.54 271.001,391.002 C271.001,374.464 284.463,361.002 301.001,361.002 C317.539,361.002 331.001,374.464 331.001,391.002 C331.001,407.54 317.539,421.002 301.001,421.002 Z M316.001,301.002 C291.187,301.002 271.001,280.816 271.001,256.002 C271.001,231.188 291.187,211.002 316.001,211.002 C340.815,211.002 361.001,231.188 361.001,256.002 C361.001,280.816 340.816,301.002 316.001,301.002 Z M405.251,332.131 C396.967,332.131 390.251,325.415 390.251,317.131 C390.251,308.845 396.967,302.131 405.251,302.131 C413.535,302.131 420.251,308.845 420.251,317.131 C420.251,325.415 413.534,332.131 405.251,332.131 Z" id="Shape"></path>
        </g>
    </g>
</svg>
