<svg width="18" height="18" viewBox="0 0 18 18" fill="none" xmlns="http://www.w3.org/2000/svg">
<circle cx="6.5" cy="5.5" r="1" stroke="currentColor"/>
<circle cx="4.5" cy="9.5" r="1" stroke="currentColor"/>
<circle cx="8.5" cy="9.5" r="1" stroke="currentColor"/>
<circle cx="13.5" cy="10.5" r="1" stroke="currentColor"/>
<circle cx="9.5" cy="13.5" r="1" stroke="currentColor"/>
<path d="M14.25 7V7.75H15H16.9868C16.9875 7.75006 16.9883 7.75013 16.9891 7.75021C16.9923 7.7505 16.9966 7.75095 17.0019 7.75163C17.0248 7.7546 17.0578 7.76083 17.0922 7.77255C17.1212 7.78239 17.1433 7.79303 17.1606 7.80425C17.2219 8.19995 17.25 8.59824 17.25 9C17.25 11.188 16.3808 13.2865 14.8336 14.8336C13.2865 16.3808 11.188 17.25 9 17.25C6.81196 17.25 4.71354 16.3808 3.16637 14.8336C1.61919 13.2865 0.75 11.188 0.75 9C0.75 6.81196 1.61919 4.71354 3.16637 3.16637C4.71094 1.62179 6.80491 0.752924 8.98897 0.750007C8.98915 0.75002 8.98934 0.750033 8.98953 0.750047C8.99694 0.750576 9.01241 0.751997 9.03295 0.75542C9.07758 0.762859 9.12563 0.776338 9.16459 0.79582C9.20062 0.813834 9.21383 0.829077 9.21971 0.8379L9.21985 0.838111C9.22329 0.843228 9.25 0.883028 9.25 1V3V3.75H10H10.9889C10.9891 3.75001 10.9893 3.75003 10.9895 3.75005C10.9969 3.75058 11.0124 3.752 11.033 3.75542C11.0776 3.76286 11.1256 3.77634 11.1646 3.79582C11.2006 3.81383 11.2138 3.82908 11.2197 3.8379L11.2199 3.83811C11.2233 3.84323 11.25 3.88303 11.25 4V5V5.75H12H13.9889C13.9891 5.75001 13.9893 5.75003 13.9895 5.75005C13.9969 5.75058 14.0124 5.752 14.033 5.75542C14.0776 5.76286 14.1256 5.77634 14.1646 5.79582C14.2006 5.81383 14.2138 5.82908 14.2197 5.8379L14.2199 5.83811C14.2233 5.84323 14.25 5.88303 14.25 6V7Z" stroke="currentColor" stroke-width="1.5"/>
</svg>
