<svg width="22" height="23" viewBox="0 0 22 23" fill="none" xmlns="http://www.w3.org/2000/svg">
<g clip-path="url(#clip0_1127_37)">
<path d="M11 0.5C4.95 0.5 0 5.45 0 11.5C0 17.55 4.95 22.5 11 22.5C17.05 22.5 22 17.55 22 11.5C22 5.45 17.05 0.5 11 0.5ZM10.25 7.5C10.25 7.09 10.59 6.75 11 6.75C11.41 6.75 11.75 7.09 11.75 7.5V12.5C11.75 12.91 11.41 13.25 11 13.25C10.59 13.25 10.25 12.91 10.25 12.5V7.5ZM11 16.5C10.45 16.5 10 16.05 10 15.5C10 14.95 10.44 14.5 11 14.5C11.55 14.5 12 14.95 12 15.5C12 16.05 11.55 16.5 11 16.5Z" fill="currentColor"/>
</g>
<defs>
<clipPath id="clip0_1127_37">
<rect width="22" height="22" fill="white" transform="translate(0 0.5)"/>
</clipPath>
</defs>
</svg>
