<svg width="21" height="21" viewBox="0 0 21 21" fill="none" xmlns="http://www.w3.org/2000/svg">
<g clip-path="url(#clip0_1127_27)">
<path d="M6.72998 7.72998C7.14419 7.72998 7.47998 7.39419 7.47998 6.97998C7.47998 6.56577 7.14419 6.22998 6.72998 6.22998C6.31577 6.22998 5.97998 6.56577 5.97998 6.97998C5.97998 7.39419 6.31577 7.72998 6.72998 7.72998Z" fill="currentColor"/>
<path d="M13.83 12.78H6.62998C6.53998 12.78 6.47998 12.84 6.47998 12.93C6.47998 15 8.15998 16.68 10.23 16.68C12.3 16.68 13.98 15 13.98 12.93C13.98 12.84 13.92 12.78 13.83 12.78Z" fill="currentColor"/>
<path d="M13.3 0.5H7.16C2.05 0.5 0 2.55 0 7.66V13.8C0 18.92 2.05 20.96 7.16 20.96H13.3C18.42 20.96 20.46 18.91 20.46 13.8V7.66C20.46 2.54 18.41 0.5 13.3 0.5ZM6.73 4.73C7.97 4.73 8.98 5.74 8.98 6.98C8.98 8.22 7.97 9.23 6.73 9.23C5.49 9.23 4.48 8.22 4.48 6.98C4.48 5.74 5.49 4.73 6.73 4.73ZM10.23 18.18C7.33 18.18 4.98 15.82 4.98 12.93C4.98 12.02 5.72 11.28 6.63 11.28H13.83C14.74 11.28 15.48 12.02 15.48 12.93C15.48 15.82 13.12 18.18 10.23 18.18ZM13.73 9.23C12.49 9.23 11.48 8.22 11.48 6.98C11.48 5.74 12.49 4.73 13.73 4.73C14.97 4.73 15.98 5.74 15.98 6.98C15.98 8.22 14.97 9.23 13.73 9.23Z" fill="currentColor"/>
<path d="M13.73 7.72998C14.1442 7.72998 14.48 7.39419 14.48 6.97998C14.48 6.56577 14.1442 6.22998 13.73 6.22998C13.3158 6.22998 12.98 6.56577 12.98 6.97998C12.98 7.39419 13.3158 7.72998 13.73 7.72998Z" fill="currentColor"/>
</g>
<defs>
<clipPath id="clip0_1127_27">
<rect width="20.47" height="20.47" fill="white" transform="translate(0 0.5)"/>
</clipPath>
</defs>
</svg>
