<svg width="22" height="23" viewBox="0 0 22 23" fill="none" xmlns="http://www.w3.org/2000/svg">
<g clip-path="url(#clip0_1127_39)">
<path d="M11 0.5C4.95 0.5 0 5.45 0 11.5C0 17.55 4.95 22.5 11 22.5C17.05 22.5 22 17.55 22 11.5C22 5.45 17.05 0.5 11 0.5ZM11.75 15.75C11.75 16.16 11.41 16.5 11 16.5C10.59 16.5 10.25 16.16 10.25 15.75V10.75C10.25 10.34 10.59 10 11 10C11.41 10 11.75 10.34 11.75 10.75V15.75ZM11.01 8.75C10.46 8.75 10.01 8.3 10.01 7.75C10.01 7.2 10.46 6.75 11.01 6.75C11.56 6.75 12.01 7.2 12.01 7.75C12.01 8.3 11.57 8.75 11.01 8.75Z" fill="currentColor"/>
</g>
<defs>
<clipPath id="clip0_1127_39">
<rect width="22" height="22" fill="white" transform="translate(0 0.5)"/>
</clipPath>
</defs>
</svg>
