<svg width="25" height="24" viewBox="0 0 25 24" fill="none" xmlns="http://www.w3.org/2000/svg">
<g clip-path="url(#clip0_105_337)">
<path d="M11.93 22.5C10.29 22.5 8.88 21.92 7.73 20.77C6.58 19.62 6 18.21 6 16.57C6 15.24 6.38 14.06 7.13 13.06C7.76 12.22 8.54 11.59 9.45 11.18V4.48C9.45 3.81 9.7 3.21 10.18 2.73C10.66 2.25 11.26 2 11.93 2C12.66 2 13.29 2.27 13.75 2.79C14 3.08 14.19 3.39 14.29 3.72H15.38C16.06 3.72 16.65 3.96 17.13 4.45C17.61 4.93 17.86 5.53 17.86 6.2C17.86 6.87 17.61 7.47 17.13 7.95C16.65 8.43 16.06 8.68 15.38 8.68H14.4V11.18C15.31 11.59 16.09 12.22 16.72 13.06C17.47 14.06 17.85 15.24 17.85 16.57C17.85 18.21 17.27 19.62 16.12 20.77C14.97 21.92 13.56 22.5 11.92 22.5H11.93ZM11.93 3.5C11.66 3.5 11.44 3.59 11.24 3.79C11.04 3.99 10.95 4.21 10.95 4.48V12.22L10.45 12.4C9.59 12.7 8.9 13.21 8.33 13.97C7.77 14.71 7.5 15.57 7.5 16.57C7.5 17.81 7.92 18.84 8.79 19.71C9.66 20.58 10.69 21 11.93 21C13.17 21 14.2 20.58 15.07 19.71C15.94 18.84 16.36 17.81 16.36 16.57C16.36 15.56 16.09 14.71 15.53 13.96C14.96 13.21 14.27 12.69 13.41 12.39L12.91 12.21V7.17H15.39C15.67 7.17 15.88 7.08 16.08 6.88C16.27 6.68 16.37 6.47 16.37 6.19C16.37 5.91 16.28 5.7 16.08 5.5C15.88 5.3 15.67 5.21 15.39 5.21H12.91V4.46C12.91 4.21 12.82 3.99 12.62 3.77C12.45 3.57 12.23 3.48 11.93 3.48V3.5ZM11.93 19.05C11.26 19.05 10.66 18.8 10.18 18.32C9.7 17.84 9.45 17.24 9.45 16.57C9.45 15.9 9.7 15.3 10.18 14.82C10.66 14.34 11.26 14.09 11.93 14.09C12.6 14.09 13.2 14.34 13.68 14.82C14.16 15.3 14.41 15.9 14.41 16.57C14.41 17.24 14.16 17.84 13.68 18.32C13.2 18.8 12.6 19.05 11.93 19.05ZM11.93 15.59C11.65 15.59 11.44 15.68 11.24 15.88C11.04 16.08 10.95 16.29 10.95 16.57C10.95 16.85 11.04 17.06 11.24 17.26C11.63 17.65 12.22 17.65 12.62 17.26C12.82 17.06 12.91 16.84 12.91 16.57C12.91 16.3 12.82 16.08 12.62 15.88C12.42 15.68 12.21 15.59 11.93 15.59Z" fill="currentColor"/>
</g>
<defs>
<clipPath id="clip0_105_337">
<rect width="11.86" height="20.5" fill="white" transform="translate(6 2)"/>
</clipPath>
</defs>
</svg>
