<svg width="25" height="24" viewBox="0 0 25 24" fill="none" xmlns="http://www.w3.org/2000/svg">
<path d="M22.3161 15V9C22.3161 4 20.3161 2 15.3161 2H9.3161C4.3161 2 2.3161 4 2.3161 9V15C2.3161 20 4.3161 22 9.3161 22H15.3161C20.3161 22 22.3161 20 22.3161 15Z" stroke="currentColor" stroke-width="1.5" stroke-linecap="round" stroke-linejoin="round"/>
<path d="M9.9361 17.3C11.1069 17.3 12.0561 16.3509 12.0561 15.1801C12.0561 14.0092 11.1069 13.0601 9.9361 13.0601C8.76525 13.0601 7.8161 14.0092 7.8161 15.1801C7.8161 16.3509 8.76525 17.3 9.9361 17.3Z" stroke="currentColor" stroke-width="1.5" stroke-linecap="round" stroke-linejoin="round"/>
<path d="M12.0561 15.18V7.77002" stroke="currentColor" stroke-width="1.5" stroke-linecap="round" stroke-linejoin="round"/>
<path d="M13.4461 6.7701L15.7861 7.55006C16.3561 7.74006 16.8161 8.38006 16.8161 8.98006V9.60005C16.8161 10.4101 16.1861 10.8601 15.4261 10.6001L13.0861 9.82008C12.5161 9.63008 12.0561 8.99009 12.0561 8.39009V7.7701C12.0561 6.9701 12.6761 6.5101 13.4461 6.7701Z" stroke="currentColor" stroke-width="1.5" stroke-linecap="round" stroke-linejoin="round"/>
</svg>
