<svg width="24" height="25" viewBox="0 0 24 25" fill="none" xmlns="http://www.w3.org/2000/svg">
<g clip-path="url(#clip0_106_644)">
<path d="M12 23.1416C12.4199 23.1319 12.8229 22.974 13.1377 22.6959C13.4525 22.4177 13.6587 22.0372 13.72 21.6216H10.2133C10.2763 22.0485 10.4922 22.4379 10.8209 22.7175C11.1495 22.9971 11.5685 23.1478 12 23.1416Z" fill="currentColor"/>
<path d="M21.9 19.0412L21.6733 18.8412C21.0303 18.2683 20.4674 17.6112 20 16.8879C19.4895 15.8896 19.1835 14.7993 19.1 13.6812V10.3879C19.0902 8.94428 18.636 7.14451 17.3481 5.65048C16.1328 4.49613 13.8531 3.33823 12.7867 3.20119V2.36119C12.7867 2.12515 12.6929 1.89877 12.526 1.73187C12.3591 1.56496 12.1327 1.47119 11.8967 1.47119C11.6606 1.47119 11.4342 1.56496 11.2673 1.73187C11.1004 1.89877 11.0067 2.12515 11.0067 2.36119V3.23452C9.2838 3.47756 7.70704 4.33569 6.56747 5.65048C5.4279 6.96527 4.80248 8.64795 4.80666 10.3879V13.6812C4.72316 14.7993 4.41718 15.8896 3.90666 16.8879C3.44725 17.6094 2.89346 18.2664 2.25999 18.8412L2.03333 19.0412V20.9212H21.9V19.0412Z" fill="currentColor"/>
</g>
<defs>
<clipPath id="clip0_106_644">
<rect width="24" height="24" fill="white" transform="translate(0 0.288086)"/>
</clipPath>
</defs>
</svg>
