<svg width="22" height="23" viewBox="0 0 22 23" fill="none" xmlns="http://www.w3.org/2000/svg">
<g clip-path="url(#clip0_1127_41)">
<path d="M11 0.5C4.95 0.5 0 5.45 0 11.5C0 17.55 4.95 22.5 11 22.5C17.05 22.5 22 17.55 22 11.5C22 5.45 17.05 0.5 11 0.5ZM11.56 15.73C11.37 15.92 11.15 16.01 10.89 16.01C10.63 16.01 10.41 15.92 10.22 15.73C10.03 15.54 9.94 15.32 9.94 15.06C9.94 14.8 10.03 14.58 10.22 14.39C10.41 14.2 10.63 14.11 10.89 14.11C11.15 14.11 11.37 14.2 11.56 14.39C11.75 14.58 11.84 14.8 11.84 15.06C11.84 15.32 11.75 15.54 11.56 15.73ZM13.22 10.37C13.05 10.65 12.78 10.97 12.42 11.32C12.15 11.57 11.96 11.78 11.85 11.94C11.74 12.1 11.66 12.28 11.62 12.49C11.59 12.69 11.51 12.85 11.37 12.98C11.24 13.11 11.08 13.17 10.9 13.17C10.72 13.17 10.55 13.1 10.42 12.97C10.29 12.84 10.23 12.68 10.25 12.5C10.27 12.17 10.35 11.88 10.49 11.63C10.62 11.38 10.84 11.13 11.13 10.87C11.45 10.59 11.7 10.34 11.87 10.13C12.04 9.92 12.13 9.68 12.13 9.41C12.13 9.09 12.02 8.82 11.8 8.6C11.58 8.39 11.28 8.28 10.89 8.28C10.64 8.28 10.42 8.33 10.24 8.44C10.06 8.55 9.92 8.68 9.81 8.84C9.7 9 9.56 9.1 9.4 9.16C9.24 9.22 9.08 9.21 8.93 9.15C8.75 9.07 8.62 8.94 8.56 8.76C8.49 8.58 8.51 8.41 8.6 8.25C8.83 7.89 9.14 7.6 9.53 7.36C9.92 7.12 10.37 7 10.89 7C11.72 7 12.36 7.23 12.81 7.69C13.26 8.15 13.48 8.71 13.48 9.36C13.48 9.76 13.4 10.09 13.23 10.37H13.22Z" fill="currentColor"/>
</g>
<defs>
<clipPath id="clip0_1127_41">
<rect width="22" height="22" fill="white" transform="translate(0 0.5)"/>
</clipPath>
</defs>
</svg>
