<svg width="18" height="18" viewBox="0 0 18 18" fill="none" xmlns="http://www.w3.org/2000/svg">
<g clip-path="url(#clip0_1127_50)">
<path d="M16.3701 1.43C15.7601 0.82 14.9601 0.5 14.1201 0.5C12.2301 0.6 10.4101 1.26 8.90008 2.39C7.38008 3.53 6.24008 5.09 5.62008 6.87C4.54008 6.9 3.47008 7.21 2.55008 7.77C1.62008 8.32 0.850078 9.11 0.310078 10.05C1.18008 10.15 2.02008 10.39 2.81008 10.75C1.93008 11.39 1.21008 12.21 0.720078 13.19C0.110078 14.41 -0.119922 15.76 0.0600778 17.09C0.100078 17.43 0.370078 17.69 0.710078 17.74C1.00008 17.78 1.30008 17.8 1.59008 17.8C2.63008 17.8 3.66008 17.56 4.60008 17.09C5.58008 16.6 6.40008 15.88 7.04008 15.01C7.40008 15.8 7.64008 16.64 7.75008 17.51C8.68008 16.97 9.47008 16.19 10.0201 15.27C10.5801 14.34 10.8901 13.28 10.9301 12.2C12.7101 11.57 14.2701 10.43 15.4001 8.92C16.5401 7.4 17.2001 5.58 17.3001 3.7C17.3001 2.85 16.9601 2.04 16.3701 1.45V1.43ZM6.15008 13.63C5.63008 14.54 4.86008 15.28 3.93008 15.75C3.17008 16.13 2.34008 16.34 1.51008 16.3C1.50008 15.46 1.69008 14.63 2.06008 13.88C2.53008 12.94 3.26008 12.17 4.17008 11.66C4.20008 11.64 4.22008 11.61 4.25008 11.59C4.63008 11.86 4.98008 12.16 5.31008 12.49C5.64008 12.82 5.93008 13.19 6.20008 13.57C6.18008 13.59 6.16008 13.61 6.15008 13.63ZM13.5401 5.67C12.8101 5.67 12.2301 5.08 12.2301 4.36C12.2301 3.64 12.8201 3.05 13.5401 3.05C14.2601 3.05 14.8501 3.64 14.8501 4.36C14.8501 5.08 14.2601 5.67 13.5401 5.67Z" fill="currentColor"/>
</g>
<defs>
<clipPath id="clip0_1127_50">
<rect width="17.3" height="17.3" fill="white" transform="translate(0 0.5)"/>
</clipPath>
</defs>
</svg>
