<svg width="21" height="21" viewBox="0 0 21 21" fill="none" xmlns="http://www.w3.org/2000/svg">
<g clip-path="url(#clip0_1127_62)">
<path d="M13.3 0H7.16C2.05 0 0 2.05 0 7.16V13.3C0 18.42 2.05 20.46 7.16 20.46H13.3C18.42 20.46 20.46 18.41 20.46 13.3V7.16C20.46 2.04 18.41 0 13.3 0ZM4.7 5.6C5.99 4.31 8.1 4.31 9.4 5.6C9.69 5.89 9.7 6.37 9.4 6.66C9.25 6.81 9.06 6.88 8.87 6.88C8.68 6.88 8.49 6.81 8.34 6.66C7.62 5.95 6.47 5.95 5.76 6.66C5.47 6.95 4.99 6.95 4.7 6.66C4.41 6.37 4.41 5.89 4.7 5.6ZM13.83 15.83H6.63C5.72 15.83 4.98 15.09 4.98 14.18C4.98 11.29 7.33 8.93 10.23 8.93C13.13 8.93 15.48 11.29 15.48 14.18C15.48 15.09 14.74 15.83 13.83 15.83ZM15.76 6.66C15.61 6.81 15.42 6.88 15.23 6.88C15.04 6.88 14.85 6.81 14.7 6.66C13.98 5.95 12.83 5.95 12.12 6.66C11.83 6.95 11.35 6.95 11.06 6.66C10.77 6.37 10.77 5.89 11.06 5.6C12.35 4.31 14.46 4.31 15.76 5.6C16.05 5.89 16.06 6.37 15.76 6.66Z" fill="currentColor"/>
<path d="M10.23 10.4299C8.15998 10.4299 6.47998 12.1099 6.47998 14.1799C6.47998 14.2699 6.53998 14.3299 6.62998 14.3299H13.83C13.92 14.3299 13.98 14.2699 13.98 14.1799C13.98 12.1099 12.3 10.4299 10.23 10.4299Z" fill="currentColor"/>
</g>
<defs>
<clipPath id="clip0_1127_62">
<rect width="20.47" height="20.47" fill="white"/>
</clipPath>
</defs>
</svg>
