<svg width="25" height="25" viewBox="0 0 25 25" fill="none" xmlns="http://www.w3.org/2000/svg">
<path d="M14.0461 4.36976L15.8061 7.88976C16.0461 8.37976 16.6861 8.84976 17.2261 8.93976L20.4161 9.46976C22.4561 9.80976 22.9361 11.2898 21.4661 12.7498L18.9861 15.2298C18.5661 15.6498 18.3361 16.4598 18.4661 17.0398L19.1761 20.1098C19.7361 22.5398 18.4461 23.4798 16.2961 22.2098L13.3061 20.4398C12.7661 20.1198 11.8761 20.1198 11.3261 20.4398L8.33607 22.2098C6.19607 23.4798 4.89607 22.5298 5.45607 20.1098L6.16607 17.0398C6.29607 16.4598 6.06607 15.6498 5.64607 15.2298L3.16607 12.7498C1.70607 11.2898 2.17607 9.80976 4.21607 9.46976L7.40607 8.93976C7.93607 8.84976 8.57607 8.37976 8.81607 7.88976L10.5761 4.36976C11.5361 2.45976 13.0961 2.45976 14.0461 4.36976Z" stroke="currentColor" stroke-width="1.5" stroke-linecap="round" stroke-linejoin="round"/>
</svg>
