<svg width="19" height="20" viewBox="0 0 19 20" fill="none" xmlns="http://www.w3.org/2000/svg">
<path d="M14.2882 18.9375H1.91616C1.75703 18.9375 1.60442 18.8743 1.4919 18.7618C1.37938 18.6493 1.31616 18.4966 1.31616 18.3375V8.53751C1.31616 8.37838 1.37938 8.22576 1.4919 8.11324C1.60442 8.00072 1.75703 7.93751 1.91616 7.93751H4.68416C5.02953 7.93751 5.36902 7.84808 5.66957 7.67791C5.97011 7.50775 6.22147 7.26266 6.39916 6.96651L9.10916 2.44951C9.31355 2.10836 9.63554 1.85364 10.0146 1.73326C10.3936 1.61288 10.8035 1.63513 11.1673 1.79582C11.5311 1.95652 11.8236 2.24458 11.9899 2.60585C12.1562 2.96711 12.1847 3.37667 12.0702 3.75751L11.0482 7.16551C11.0214 7.25502 11.0159 7.34954 11.0321 7.44156C11.0483 7.53357 11.0857 7.62053 11.1415 7.69551C11.1972 7.77048 11.2697 7.83141 11.3532 7.87342C11.4366 7.91543 11.5287 7.93738 11.6222 7.93751H16.1972C16.5047 7.93744 16.8081 8.00831 17.0838 8.14458C17.3595 8.28086 17.6001 8.47889 17.7868 8.72326C17.9735 8.96763 18.1013 9.25178 18.1604 9.5536C18.2194 9.85542 18.208 10.1668 18.1272 10.4635L16.2172 17.4635C16.1018 17.8866 15.8507 18.26 15.5023 18.5264C15.1539 18.7927 14.7267 18.9372 14.2882 18.9375Z" stroke="currentColor" stroke-width="1.5" stroke-linecap="round"/>
<path d="M4.81616 18.9375V7.9375" stroke="currentColor" stroke-width="1.5" stroke-linecap="round" stroke-linejoin="round"/>
</svg>
