<svg width="28" height="22" viewBox="0 0 28 22" fill="none" xmlns="http://www.w3.org/2000/svg">
<path d="M24.6762 1.02165L24.3656 1.32888V11.106V20.8831L24.6762 21.1903C24.9686 21.4795 25.0234 21.4976 25.6355 21.4976C26.0557 21.4976 26.3937 21.4433 26.5673 21.353C27.1246 21.0729 27.1063 21.4976 27.1063 11.1783C27.1063 4.84394 27.0698 1.64515 27.0058 1.41021C26.8688 0.904184 26.5034 0.714424 25.6629 0.714424C25.0142 0.714424 24.9777 0.723461 24.6762 1.02165Z" fill="currentColor"/>
<path d="M21.3051 3.47065C20.1997 3.83209 16.6459 4.98872 13.4026 6.04595C6.41376 8.32306 5.60981 8.5851 5.52758 8.65739C5.49104 8.6845 5.44536 9.79595 5.40882 11.1152L5.354 13.5279L5.74684 13.6725C5.9661 13.7538 7.00758 14.0972 8.0582 14.4405C9.11795 14.7839 12.6078 15.9134 15.8236 16.9616C23.6165 19.5008 23.3059 19.4014 23.3881 19.3562C23.4703 19.302 23.4703 2.91041 23.3789 2.84715C23.3424 2.82908 22.4105 3.10016 21.3051 3.47065Z" fill="currentColor"/>
<path d="M2.13823 7.58165C1.73625 7.69912 1.27033 8.09671 1.04193 8.51238C0.850078 8.87382 0.840942 8.98226 0.840942 11.1058C0.840942 13.3015 0.840942 13.3196 1.06934 13.7262C1.19724 13.9431 1.48045 14.2503 1.69057 14.4039C2.07428 14.666 2.12909 14.675 3.27107 14.7112L4.44958 14.7383V11.1148V7.49129L3.42637 7.50033C2.85995 7.50033 2.27526 7.54551 2.13823 7.58165Z" fill="currentColor"/>
<path d="M7.02582 17.0068L7.05323 18.9405L7.31817 19.311C7.48261 19.555 7.74755 19.7718 8.05817 19.9164L8.53323 20.1514L12.151 20.1243L15.7596 20.0972L16.1616 19.8261C16.6001 19.5188 16.9656 18.9586 16.9656 18.5881C16.9656 18.3893 16.9016 18.3351 16.5545 18.2176L16.1434 18.0731V18.299C16.1434 18.5972 15.915 19.0309 15.6957 19.1484C15.5769 19.2026 14.234 19.2387 11.9957 19.2387H8.47841L8.22261 19.0218L7.96681 18.805L7.92113 17.1062L7.87545 15.4074L7.43693 15.2447L6.99841 15.0821L7.02582 17.0068Z" fill="currentColor"/>
</svg>
