<svg width="25" height="25" viewBox="0 0 25 25" fill="none" xmlns="http://www.w3.org/2000/svg">
<path d="M8.38691 22.5H16.3869C20.4069 22.5 21.1269 20.89 21.3369 18.93L22.0869 10.93C22.3569 8.49 21.6569 6.5 17.3869 6.5H7.38691C3.11691 6.5 2.41691 8.49 2.68691 10.93L3.43691 18.93C3.64691 20.89 4.36691 22.5 8.38691 22.5Z" stroke="currentColor" stroke-width="1.5" stroke-miterlimit="10" stroke-linecap="round" stroke-linejoin="round"/>
<path d="M8.38696 6.5V5.7C8.38696 3.93 8.38696 2.5 11.587 2.5H13.187C16.387 2.5 16.387 3.93 16.387 5.7V6.5" stroke="currentColor" stroke-width="1.5" stroke-miterlimit="10" stroke-linecap="round" stroke-linejoin="round"/>
<path d="M14.387 13.5V14.5C14.387 14.51 14.387 14.51 14.387 14.52C14.387 15.61 14.377 16.5 12.387 16.5C10.407 16.5 10.387 15.62 10.387 14.53V13.5C10.387 12.5 10.387 12.5 11.387 12.5H13.387C14.387 12.5 14.387 12.5 14.387 13.5Z" stroke="currentColor" stroke-width="1.5" stroke-miterlimit="10" stroke-linecap="round" stroke-linejoin="round"/>
<path d="M22.037 11.5C19.727 13.18 17.087 14.18 14.387 14.52" stroke="currentColor" stroke-width="1.5" stroke-miterlimit="10" stroke-linecap="round" stroke-linejoin="round"/>
<path d="M3.00696 11.77C5.25696 13.31 7.79696 14.24 10.387 14.53" stroke="currentColor" stroke-width="1.5" stroke-miterlimit="10" stroke-linecap="round" stroke-linejoin="round"/>
</svg>
