<svg width="19" height="21" viewBox="0 0 19 21" fill="none" xmlns="http://www.w3.org/2000/svg">
<g clip-path="url(#clip0_1127_52)">
<path d="M13.8898 5.05V4.45C13.8898 2.69 13.8898 0.5 9.93979 0.5H8.3398C4.3898 0.5 4.38979 2.69 4.38979 4.45V5.05C0.489794 5.07 -0.190205 6.88 0.0397946 9.12C0.109795 9.14 0.179795 9.16 0.239795 9.2C2.10979 10.48 4.24979 11.34 6.44979 11.72V11.55C6.44979 10.14 6.78979 9.8 8.19979 9.8H10.1998C11.5998 9.8 11.9498 10.14 11.9498 11.55V11.69C14.2098 11.28 16.3698 10.37 18.2398 9.05C18.4498 6.84 17.7398 5.06 13.8798 5.04L13.8898 5.05ZM5.88979 5.05V4.46C5.88979 2.68 5.8898 2.01 8.3398 2.01H9.93979C12.3898 2.01 12.3898 2.68 12.3898 4.46V5.05H5.88979Z" fill="currentColor"/>
<path d="M9.19996 15.2999C6.97996 15.2999 6.54996 14.1999 6.46996 13.2299C4.26996 12.8999 2.13996 12.0999 0.209961 10.9299L0.749961 16.6899C0.949961 18.5299 1.61996 20.0399 5.38996 20.0399H12.89C16.66 20.0399 17.33 18.5299 17.53 16.6899L18.07 10.9599C16.19 12.0899 14.11 12.8599 11.93 13.2099C11.84 14.1899 11.41 15.2999 9.19996 15.2999Z" fill="currentColor"/>
<path d="M9.81997 13.9699C10.33 13.9699 10.75 13.5499 10.75 13.0399V11.2399C10.75 11.0699 10.62 10.9399 10.45 10.9399H8.01997C7.84997 10.9399 7.71997 11.0699 7.71997 11.2399V13.0399C7.71997 13.5499 8.13997 13.9699 8.64997 13.9699H9.81997Z" fill="currentColor"/>
</g>
<defs>
<clipPath id="clip0_1127_52">
<rect width="18.28" height="19.54" fill="white" transform="translate(0 0.5)"/>
</clipPath>
</defs>
</svg>
