<svg width="25" height="25" viewBox="0 0 25 25" fill="none" xmlns="http://www.w3.org/2000/svg">
<path d="M8.69487 22.5H16.0789C19.7894 22.5 21.1462 21.3339 21.34 19.3739V10.93C21.5893 8.49 20.9432 6.5 17.0019 6.5H7.77186C3.83063 6.5 3.18452 8.49 3.43373 10.93V19.3739C3.62756 21.3339 4.98438 22.5 8.69487 22.5Z" stroke="currentColor" stroke-width="1.5" stroke-miterlimit="10" stroke-linecap="round" stroke-linejoin="round"/>
<path d="M6.08868 3.89222L6.11492 6.49491" stroke="currentColor" stroke-width="1.5" stroke-miterlimit="10" stroke-linecap="round" stroke-linejoin="round"/>
<path d="M18.6795 3.89735L18.7057 6.50004" stroke="currentColor" stroke-width="1.5" stroke-miterlimit="10" stroke-linecap="round" stroke-linejoin="round"/>
<path d="M21.3869 11.3206L3.38694 11.4737" stroke="currentColor" stroke-width="1.5" stroke-miterlimit="10" stroke-linecap="round" stroke-linejoin="round"/>
<path d="M9.1167 14V14.5C9.1167 14.505 9.1167 14.505 9.1167 14.51C9.1167 15.055 9.1117 15.5 8.1167 15.5C7.1267 15.5 7.1167 15.06 7.1167 14.515V14C7.1167 13.5 7.1167 13.5 7.6167 13.5H8.6167C9.1167 13.5 9.1167 13.5 9.1167 14Z" fill="currentColor"/>
<path d="M9.1167 17.915V18.415C9.1167 18.42 9.1167 18.42 9.1167 18.425C9.1167 18.97 9.1117 19.415 8.1167 19.415C7.1267 19.415 7.1167 18.975 7.1167 18.43V17.915C7.1167 17.415 7.1167 17.415 7.6167 17.415H8.6167C9.1167 17.415 9.1167 17.415 9.1167 17.915Z" fill="currentColor"/>
<path d="M13.387 14V14.5C13.387 14.505 13.387 14.505 13.387 14.51C13.387 15.055 13.382 15.5 12.387 15.5C11.397 15.5 11.387 15.06 11.387 14.515V14C11.387 13.5 11.387 13.5 11.887 13.5H12.887C13.387 13.5 13.387 13.5 13.387 14Z" fill="currentColor"/>
<path d="M13.387 17.915V18.415C13.387 18.42 13.387 18.42 13.387 18.425C13.387 18.97 13.382 19.415 12.387 19.415C11.397 19.415 11.387 18.975 11.387 18.43V17.915C11.387 17.415 11.387 17.415 11.887 17.415H12.887C13.387 17.415 13.387 17.415 13.387 17.915Z" fill="currentColor"/>
<path d="M17.657 14V14.5C17.657 14.505 17.657 14.505 17.657 14.51C17.657 15.055 17.652 15.5 16.657 15.5C15.667 15.5 15.657 15.06 15.657 14.515V14C15.657 13.5 15.657 13.5 16.157 13.5H17.157C17.657 13.5 17.657 13.5 17.657 14Z" fill="currentColor"/>
<path d="M17.657 17.915V18.415C17.657 18.42 17.657 18.42 17.657 18.425C17.657 18.97 17.652 19.415 16.657 19.415C15.667 19.415 15.657 18.975 15.657 18.43V17.915C15.657 17.415 15.657 17.415 16.157 17.415H17.157C17.657 17.415 17.657 17.415 17.657 17.915Z" fill="currentColor"/>
</svg>
