<svg width="25" height="25" viewBox="0 0 25 25" fill="none" xmlns="http://www.w3.org/2000/svg">
<path d="M18.8569 17.6L19.2469 20.76C19.3469 21.59 18.4569 22.17 17.7469 21.74L13.5569 19.25C13.0969 19.25 12.6469 19.22 12.2069 19.16C12.9469 18.29 13.3869 17.19 13.3869 16C13.3869 13.16 10.9269 10.86 7.88693 10.86C6.72693 10.86 5.65694 11.19 4.76694 11.77C4.73694 11.52 4.72693 11.27 4.72693 11.01C4.72693 6.46001 8.67693 2.77002 13.5569 2.77002C18.4369 2.77002 22.3869 6.46001 22.3869 11.01C22.3869 13.71 20.9969 16.1 18.8569 17.6Z" stroke="currentColor" stroke-width="1.5" stroke-linecap="round" stroke-linejoin="round"/>
<path d="M13.387 16.0001C13.387 17.1901 12.947 18.2901 12.207 19.1601C11.217 20.3601 9.64696 21.1301 7.88696 21.1301L5.27696 22.6801C4.83696 22.9501 4.27696 22.5801 4.33696 22.0701L4.58696 20.1001C3.24696 19.1701 2.38696 17.6801 2.38696 16.0001C2.38696 14.2401 3.32697 12.6901 4.76697 11.7701C5.65697 11.1901 6.72696 10.8601 7.88696 10.8601C10.927 10.8601 13.387 13.1601 13.387 16.0001Z" stroke="currentColor" stroke-width="1.5" stroke-linecap="round" stroke-linejoin="round"/>
</svg>
