<svg width="25" height="25" viewBox="0 0 25 25" fill="none" xmlns="http://www.w3.org/2000/svg">
<path d="M10.387 3.77002C9.1252 3.76965 7.88373 4.08762 6.7775 4.69449C5.67126 5.30136 4.73601 6.17751 4.05833 7.24184C3.38065 8.30617 2.98244 9.52427 2.90057 10.7834C2.8187 12.0425 3.05582 13.3019 3.58996 14.445C3.33827 15.4868 3.1112 16.5345 2.90896 17.587C2.87819 17.7458 2.88654 17.9097 2.9333 18.0645C2.98006 18.2193 3.06383 18.3605 3.17735 18.4757C3.29087 18.5909 3.43075 18.6767 3.58487 18.7257C3.739 18.7747 3.90275 18.7855 4.06196 18.757C4.68496 18.647 6.03996 18.397 7.29796 18.107C8.3176 18.5668 9.42718 18.7927 10.5454 18.7682C11.6637 18.7437 12.7623 18.4694 13.7608 17.9653C14.7593 17.4613 15.6324 16.7403 16.3162 15.8552C17 14.97 17.4772 13.9431 17.7128 12.8497C17.9484 11.7563 17.9364 10.624 17.6778 9.53579C17.4192 8.44758 16.9204 7.43101 16.218 6.5605C15.5157 5.69 14.6275 4.98761 13.6186 4.50478C12.6096 4.02195 11.5055 3.7709 10.387 3.77002ZM10.349 19.77C11.7345 21.0582 13.5571 21.7729 15.449 21.77C16.5138 21.7713 17.5666 21.5453 18.537 21.107C19.58 21.351 20.723 21.595 21.45 21.747C21.6546 21.79 21.8668 21.7806 22.0669 21.7199C22.2671 21.6591 22.4486 21.5489 22.5948 21.3993C22.7411 21.2498 22.8472 21.0659 22.9035 20.8645C22.9598 20.663 22.9645 20.4507 22.917 20.247C22.755 19.544 22.499 18.452 22.246 17.444C22.6904 16.492 22.93 15.4572 22.9491 14.4067C22.9682 13.3562 22.7665 12.3134 22.357 11.3458C21.9475 10.3782 21.3393 9.50741 20.5719 8.7898C19.8044 8.07218 18.8948 7.52375 17.902 7.18002C18.2568 7.82488 18.5257 8.51339 18.702 9.22802C19.5451 9.77151 20.2384 10.5179 20.7183 11.3988C21.1983 12.2796 21.4495 13.2669 21.449 14.27C21.4508 15.2258 21.2227 16.1679 20.784 17.017L20.654 17.27L20.724 17.546C20.952 18.441 21.191 19.446 21.366 20.196C20.4501 20.0042 19.5367 19.8008 18.626 19.586L18.362 19.524L18.119 19.645C17.315 20.045 16.409 20.27 15.449 20.27C14.427 20.2719 13.4216 20.0116 12.529 19.514C11.8164 19.693 11.0836 19.7791 10.349 19.77Z" fill="currentColor"/>
</svg>
