<svg width="24" height="25" viewBox="0 0 24 25" fill="none" xmlns="http://www.w3.org/2000/svg">
<path d="M11.5 22.2881C9.96667 22.2881 8.66667 21.7548 7.6 20.6881C6.53333 19.6214 6 18.3214 6 16.7881V6.28809C6 5.18809 6.39167 4.24642 7.175 3.46309C7.95833 2.67975 8.9 2.28809 10 2.28809C11.1 2.28809 12.0417 2.67975 12.825 3.46309C13.6083 4.24642 14 5.18809 14 6.28809V15.7881C14 16.4881 13.7583 17.0798 13.275 17.5631C12.7917 18.0464 12.2 18.2881 11.5 18.2881C10.8 18.2881 10.2083 18.0464 9.725 17.5631C9.24167 17.0798 9 16.4881 9 15.7881V7.03809C9 6.82142 9.071 6.64242 9.213 6.50109C9.35433 6.35909 9.53333 6.28809 9.75 6.28809C9.96667 6.28809 10.146 6.35909 10.288 6.50109C10.4293 6.64242 10.5 6.82142 10.5 7.03809V15.7881C10.5 16.0714 10.596 16.3088 10.788 16.5001C10.9793 16.6921 11.2167 16.7881 11.5 16.7881C11.7833 16.7881 12.021 16.6921 12.213 16.5001C12.4043 16.3088 12.5 16.0714 12.5 15.7881V6.28809C12.5 5.58809 12.2583 4.99642 11.775 4.51309C11.2917 4.02975 10.7 3.78809 10 3.78809C9.3 3.78809 8.70833 4.02975 8.225 4.51309C7.74167 4.99642 7.5 5.58809 7.5 6.28809V16.7881C7.5 17.8881 7.89167 18.8298 8.675 19.6131C9.45833 20.3964 10.4 20.7881 11.5 20.7881C12.6 20.7881 13.5417 20.3964 14.325 19.6131C15.1083 18.8298 15.5 17.8881 15.5 16.7881V7.03809C15.5 6.82142 15.571 6.64242 15.713 6.50109C15.8543 6.35909 16.0333 6.28809 16.25 6.28809C16.4667 6.28809 16.646 6.35909 16.788 6.50109C16.9293 6.64242 17 6.82142 17 7.03809V16.7881C17 18.3214 16.4667 19.6214 15.4 20.6881C14.3333 21.7548 13.0333 22.2881 11.5 22.2881Z" fill="currentColor"/>
</svg>
