<svg width="15" height="22" viewBox="0 0 15 22" fill="none" xmlns="http://www.w3.org/2000/svg">
<g clip-path="url(#clip0_1127_20)">
<path d="M11.93 5.74L11.46 3.46C10.95 1.47 9.75 0.5 7.8 0.5H6.71C4.74 0.5 3.54 1.47 3.03 3.51L2.59 5.72C0.94 7.1 0 9.09 0 11.25C0 13.41 0.94 15.41 2.59 16.8L3.04 19.02C3.54 21.02 4.74 22 6.71 22H7.8C9.75 22 10.95 21.03 11.47 19L11.93 16.77C13.56 15.39 14.5 13.4 14.5 11.25C14.5 9.1 13.56 7.12 11.93 5.74ZM10.01 18.66C9.62 20.19 8.84 20.5 7.8 20.5H6.71C5.66 20.5 4.88 20.19 4.5 18.69L4.34 17.89C4.49 17.96 4.65 18.01 4.81 18.07C4.85 18.09 4.9 18.11 4.94 18.12C4.96 18.13 4.98 18.13 4.99 18.14C5.29 18.24 5.6 18.31 5.9 18.36C5.96 18.37 6.01 18.39 6.07 18.4C6.14 18.42 6.22 18.41 6.29 18.42C6.52 18.45 6.75 18.47 6.98 18.48C7.05 18.48 7.12 18.49 7.19 18.49C7.21 18.49 7.23 18.5 7.25 18.5C7.49 18.5 7.73 18.48 7.97 18.45H8C8 18.45 8.1 18.45 8.15 18.45C8.28 18.44 8.41 18.4 8.53 18.38C8.64 18.36 8.74 18.34 8.84 18.32C8.91 18.31 8.97 18.3 9.04 18.28C9.12 18.28 9.19 18.23 9.26 18.21C9.41 18.17 9.55 18.12 9.7 18.07C9.76 18.05 9.83 18.03 9.9 18.01C9.94 17.99 9.98 17.97 10.02 17.95C10.07 17.93 10.12 17.92 10.17 17.9L10.01 18.67V18.66ZM9.19 12.44C9.48 12.73 9.48 13.21 9.19 13.5C9.04 13.65 8.85 13.72 8.66 13.72C8.47 13.72 8.28 13.65 8.13 13.5L6.73 12.1C6.59 11.96 6.51 11.77 6.51 11.57V8.78C6.51 8.37 6.85 8.03 7.26 8.03C7.67 8.03 8.01 8.37 8.01 8.78V11.26L9.19 12.44ZM9.84 4.49C9.84 4.49 9.79 4.47 9.77 4.46C9.75 4.45 9.74 4.45 9.72 4.44L9.55 4.38C9.23 4.27 8.9 4.18 8.57 4.12L8.35 4.09H8.31C8.16 4.06 8.02 4.04 7.88 4.03H7.86C7.34 3.98 6.87 3.99 6.27 4.08C6.23 4.08 6.19 4.08 6.15 4.09H6.11L5.95 4.12C5.6 4.18 5.26 4.27 4.94 4.38L4.78 4.44C4.63 4.49 4.48 4.55 4.34 4.61L4.49 3.84C4.88 2.31 5.66 2 6.71 2H7.8C8.84 2 9.62 2.31 10 3.8L10.17 4.62C10.07 4.58 9.95 4.53 9.84 4.49Z" fill="currentColor"/>
</g>
<defs>
<clipPath id="clip0_1127_20">
<rect width="14.5" height="21.5" fill="white" transform="translate(0 0.5)"/>
</clipPath>
</defs>
</svg>
