<svg width="19" height="18" viewBox="0 0 19 18" fill="none" xmlns="http://www.w3.org/2000/svg">
<path d="M9.88696 0C7.50001 0 5.21083 0.948211 3.523 2.63604C1.83517 4.32387 0.886963 6.61305 0.886963 9C0.886963 11.3869 1.83517 13.6761 3.523 15.364C5.21083 17.0518 7.50001 18 9.88696 18C12.2739 18 14.5631 17.0518 16.2509 15.364C17.9388 13.6761 18.887 11.3869 18.887 9C18.887 8.5 18.847 8 18.757 7.5C18.487 7 17.887 7 17.887 7H15.887V6C15.887 5 14.887 5 14.887 5H12.887V4C12.887 3 11.887 3 11.887 3H10.887V1C10.887 0 9.88696 0 9.88696 0ZM7.38696 3C7.78479 3 8.16632 3.15804 8.44762 3.43934C8.72893 3.72064 8.88696 4.10218 8.88696 4.5C8.88696 4.89782 8.72893 5.27936 8.44762 5.56066C8.16632 5.84196 7.78479 6 7.38696 6C6.98914 6 6.60761 5.84196 6.3263 5.56066C6.045 5.27936 5.88696 4.89782 5.88696 4.5C5.88696 4.10218 6.045 3.72064 6.3263 3.43934C6.60761 3.15804 6.98914 3 7.38696 3ZM4.38696 7C4.78479 7 5.16632 7.15804 5.44762 7.43934C5.72893 7.72064 5.88696 8.10218 5.88696 8.5C5.88696 8.89782 5.72893 9.27936 5.44762 9.56066C5.16632 9.84196 4.78479 10 4.38696 10C3.98914 10 3.60761 9.84196 3.3263 9.56066C3.045 9.27936 2.88696 8.89782 2.88696 8.5C2.88696 8.10218 3.045 7.72064 3.3263 7.43934C3.60761 7.15804 3.98914 7 4.38696 7ZM9.38696 8C9.78479 8 10.1663 8.15804 10.4476 8.43934C10.7289 8.72064 10.887 9.10218 10.887 9.5C10.887 9.89782 10.7289 10.2794 10.4476 10.5607C10.1663 10.842 9.78479 11 9.38696 11C8.98914 11 8.60761 10.842 8.3263 10.5607C8.045 10.2794 7.88696 9.89782 7.88696 9.5C7.88696 9.10218 8.045 8.72064 8.3263 8.43934C8.60761 8.15804 8.98914 8 9.38696 8ZM14.387 10C14.7848 10 15.1663 10.158 15.4476 10.4393C15.7289 10.7206 15.887 11.1022 15.887 11.5C15.887 11.8978 15.7289 12.2794 15.4476 12.5607C15.1663 12.842 14.7848 13 14.387 13C13.9891 13 13.6076 12.842 13.3263 12.5607C13.045 12.2794 12.887 11.8978 12.887 11.5C12.887 11.1022 13.045 10.7206 13.3263 10.4393C13.6076 10.158 13.9891 10 14.387 10ZM8.88696 13C9.28479 13 9.66632 13.158 9.94762 13.4393C10.2289 13.7206 10.387 14.1022 10.387 14.5C10.387 14.8978 10.2289 15.2794 9.94762 15.5607C9.66632 15.842 9.28479 16 8.88696 16C8.48914 16 8.10761 15.842 7.8263 15.5607C7.545 15.2794 7.38696 14.8978 7.38696 14.5C7.38696 14.1022 7.545 13.7206 7.8263 13.4393C8.10761 13.158 8.48914 13 8.88696 13Z" fill="currentColor"/>
</svg>
