<svg width="25" height="25" viewBox="0 0 25 25" fill="none" xmlns="http://www.w3.org/2000/svg">
<path d="M9.3869 22.9346H15.3869C20.3869 22.9346 22.3869 20.9346 22.3869 15.9346V9.93457C22.3869 4.93457 20.3869 2.93457 15.3869 2.93457H9.3869C4.3869 2.93457 2.3869 4.93457 2.3869 9.93457V15.9346C2.3869 20.9346 4.3869 22.9346 9.3869 22.9346Z" stroke="currentColor" stroke-width="1.5" stroke-linecap="round" stroke-linejoin="round"/>
<path d="M15.8869 10.6846C16.7153 10.6846 17.3869 10.013 17.3869 9.18457C17.3869 8.35614 16.7153 7.68457 15.8869 7.68457C15.0585 7.68457 14.3869 8.35614 14.3869 9.18457C14.3869 10.013 15.0585 10.6846 15.8869 10.6846Z" stroke="currentColor" stroke-width="1.5" stroke-miterlimit="10" stroke-linecap="round" stroke-linejoin="round"/>
<path d="M8.8869 10.6846C9.71533 10.6846 10.3869 10.013 10.3869 9.18457C10.3869 8.35614 9.71533 7.68457 8.8869 7.68457C8.05847 7.68457 7.3869 8.35614 7.3869 9.18457C7.3869 10.013 8.05847 10.6846 8.8869 10.6846Z" stroke="currentColor" stroke-width="1.5" stroke-miterlimit="10" stroke-linecap="round" stroke-linejoin="round"/>
<path d="M8.7869 14.2346H15.9869C16.4869 14.2346 16.8869 14.6346 16.8869 15.1346C16.8869 17.6246 14.8769 19.6346 12.3869 19.6346C9.8969 19.6346 7.8869 17.6246 7.8869 15.1346C7.8869 14.6346 8.2869 14.2346 8.7869 14.2346Z" stroke="currentColor" stroke-width="1.5" stroke-miterlimit="10" stroke-linecap="round" stroke-linejoin="round"/>
</svg>
