<svg width="24" height="24" viewBox="0 0 24 24" fill="none" xmlns="http://www.w3.org/2000/svg">
<path d="M18 17C18 18.6667 17.4167 20.0833 16.25 21.25C15.0833 22.4167 13.6667 23 12 23C10.3333 23 8.91667 22.4167 7.75 21.25C6.58333 20.0833 6 18.6667 6 17C6 15.65 6.379 14.4707 7.137 13.462C7.89567 12.454 8.85 11.75 10 11.35L10 3C10 2.45 10.1957 1.979 10.587 1.587C10.979 1.19567 11.45 1 12 1C12.6 1 13.0833 1.20833 13.45 1.625C13.8167 2.04167 14 2.5 14 3H16C16.55 3 17.021 3.19567 17.413 3.587C17.8043 3.979 18 4.45 18 5C18 5.55 17.8043 6.021 17.413 6.413C17.021 6.80433 16.55 7 16 7H14V11.35C15.15 11.75 16.1043 12.454 16.863 13.462C17.621 14.4707 18 15.65 18 17ZM14 17C14 16.45 13.804 15.9793 13.412 15.588C13.0207 15.196 12.55 15 12 15C11.45 15 10.979 15.196 10.587 15.588C10.1957 15.9793 10 16.45 10 17C10 17.55 10.1957 18.0207 10.587 18.412C10.979 18.804 11.45 19 12 19C12.55 19 13.0207 18.804 13.412 18.412C13.804 18.0207 14 17.55 14 17Z" fill="currentColor"/>
</svg>
