<svg width="24" height="25" viewBox="0 0 24 25" fill="none" xmlns="http://www.w3.org/2000/svg">
<path d="M21.0281 15.2336C20.5876 16.8101 19.7421 18.2437 18.5755 19.392C17.409 20.5402 15.9621 21.3631 14.3789 21.7786C12.7957 22.1941 11.1312 22.1879 9.55114 21.7605C7.97107 21.3331 6.53043 20.4995 5.37253 19.3425C4.21463 18.1856 3.37982 16.7456 2.95116 15.1659C2.52249 13.5861 2.5149 11.9217 2.92915 10.3381C3.34339 8.75456 4.16504 7.30704 5.31234 6.13957C6.45965 4.9721 7.89263 4.12537 9.46874 3.68359C9.58422 3.64641 9.70706 3.63816 9.82647 3.65958C9.94588 3.68099 10.0582 3.73141 10.1536 3.8064C10.2489 3.8814 10.3244 3.97866 10.3734 4.08966C10.4223 4.20066 10.4433 4.32198 10.4344 4.44297C10.4341 4.50036 10.4246 4.55734 10.4062 4.61172C10.0343 5.95417 10.0251 7.37126 10.3796 8.71842C10.7341 10.0656 11.4397 11.2946 12.4242 12.2801C13.4087 13.2656 14.6371 13.9723 15.9839 14.3281C17.3307 14.6839 18.7478 14.6761 20.0906 14.3055L20.2969 14.268C20.46 14.2667 20.6192 14.318 20.7509 14.4142C20.8826 14.5105 20.9798 14.6465 21.0281 14.8023C21.0753 14.9422 21.0753 15.0937 21.0281 15.2336Z" fill="currentColor"/>
</svg>
