<svg width="24" height="25" viewBox="0 0 24 25" fill="none" xmlns="http://www.w3.org/2000/svg">
<path d="M20.25 6.28828V10.7883C20.2493 10.9046 20.2219 11.0192 20.1698 11.1232C20.1178 11.2272 20.0426 11.3179 19.95 11.3883C19.8557 11.458 19.7467 11.5053 19.6313 11.5264C19.5159 11.5475 19.3973 11.542 19.2844 11.5102L12.75 9.55079V17.5383C12.75 18.4283 12.4861 19.2983 11.9916 20.0384C11.4971 20.7784 10.7943 21.3552 9.97208 21.6957C9.14981 22.0363 8.24501 22.1255 7.3721 21.9518C6.49918 21.7782 5.69736 21.3496 5.06802 20.7203C4.43869 20.0909 4.0101 19.2891 3.83647 18.4162C3.66283 17.5433 3.75195 16.6385 4.09254 15.8162C4.43314 14.9939 5.00991 14.2911 5.74994 13.7967C6.48996 13.3022 7.35999 13.0383 8.25 13.0383C9.35885 13.0349 10.4289 13.4462 11.25 14.1914V4.03828C11.2507 3.92198 11.2781 3.80739 11.3302 3.70336C11.3822 3.59933 11.4574 3.50864 11.55 3.43828C11.6443 3.36854 11.7533 3.32129 11.8687 3.30017C11.9841 3.27904 12.1027 3.2846 12.2156 3.31641L19.7156 5.56641C19.8699 5.61426 20.0049 5.71006 20.101 5.83988C20.1971 5.96969 20.2493 6.12677 20.25 6.28828Z" fill="currentColor"/>
</svg>
