<svg width="19" height="21" viewBox="0 0 19 21" fill="none" xmlns="http://www.w3.org/2000/svg">
<path d="M18.0161 14.4906C17.463 13.5344 16.7973 11.7156 16.7973 8.5V7.83438C16.7973 3.68125 13.4692 0.278125 9.37234 0.25H9.31609C8.33241 0.25123 7.3586 0.4462 6.45026 0.823776C5.54193 1.20135 4.71686 1.75414 4.02216 2.45058C3.32746 3.14702 2.77674 3.97347 2.40144 4.88275C2.02614 5.79202 1.83361 6.76632 1.83484 7.75V8.5C1.83484 11.7156 1.16921 13.5344 0.616088 14.4906C0.482317 14.7185 0.411116 14.9777 0.40969 15.2419C0.408264 15.5061 0.476665 15.7661 0.607969 15.9954C0.739273 16.2247 0.928821 16.4152 1.15743 16.5477C1.38604 16.6803 1.6456 16.75 1.90984 16.75H5.56609C5.56609 17.7446 5.96118 18.6984 6.66444 19.4016C7.3677 20.1049 8.32153 20.5 9.31609 20.5C10.3107 20.5 11.2645 20.1049 11.9677 19.4016C12.671 18.6984 13.0661 17.7446 13.0661 16.75H16.7223C16.9865 16.7517 17.2464 16.6831 17.4754 16.5513C17.7044 16.4196 17.8942 16.2293 18.0255 16C18.1556 15.7694 18.2232 15.5088 18.2216 15.2441C18.2199 14.9793 18.1491 14.7196 18.0161 14.4906ZM9.31609 19C8.72011 18.9975 8.14925 18.7597 7.72782 18.3383C7.3064 17.9168 7.06856 17.346 7.06609 16.75H11.5661C11.5636 17.346 11.3258 17.9168 10.9044 18.3383C10.4829 18.7597 9.91207 18.9975 9.31609 19ZM1.90984 15.25C2.55671 14.125 3.33484 12.0531 3.33484 8.5V7.75C3.33237 6.96295 3.48526 6.18316 3.78474 5.45532C4.08422 4.72747 4.52441 4.06589 5.08006 3.50849C5.63572 2.95109 6.29592 2.50884 7.02282 2.20708C7.74973 1.90533 8.52904 1.75 9.31609 1.75H9.36296C12.6348 1.76875 15.2973 4.50625 15.2973 7.83438V8.5C15.2973 12.0531 16.0755 14.125 16.7223 15.25H1.90984Z" fill="currentColor"/>
</svg>
