<svg width="25" height="24" viewBox="0 0 25 24" fill="none" xmlns="http://www.w3.org/2000/svg">
<path d="M12.3162 22C17.8162 22 22.3162 17.5 22.3162 12C22.3162 6.5 17.8162 2 12.3162 2C6.81616 2 2.31616 6.5 2.31616 12C2.31616 17.5 6.81616 22 12.3162 22Z" stroke="currentColor" stroke-width="1.5" stroke-linecap="round" stroke-linejoin="round"/>
<path d="M12.2214 13.6604C12.0316 13.6604 11.8716 13.5932 11.7413 13.4588C11.6107 13.3244 11.5533 13.1663 11.5691 12.9844C11.5928 12.6524 11.6719 12.3638 11.8063 12.1187C11.9407 11.8736 12.1542 11.6206 12.4467 11.3597C12.7709 11.075 13.0179 10.8279 13.1877 10.6182C13.3579 10.4088 13.4429 10.1697 13.4429 9.90092C13.4429 9.57675 13.3343 9.30794 13.117 9.09446C12.8995 8.88099 12.597 8.77425 12.2095 8.77425C11.9565 8.77425 11.7412 8.82754 11.5634 8.93412C11.3854 9.04101 11.241 9.17353 11.1303 9.33166C11.0196 9.48978 10.8833 9.59652 10.7214 9.65187C10.5592 9.70721 10.4029 9.70326 10.2527 9.64001C10.0709 9.56094 9.9464 9.43049 9.87936 9.24864C9.81199 9.06679 9.82575 8.8968 9.92063 8.73867C10.1499 8.38288 10.4583 8.08639 10.8457 7.8492C11.2331 7.612 11.6877 7.49341 12.2095 7.49341C13.0397 7.49341 13.6782 7.72475 14.1251 8.18744C14.5717 8.6498 14.7949 9.20515 14.7949 9.85348C14.7949 10.2488 14.71 10.5869 14.5402 10.8677C14.3701 11.1482 14.1031 11.4664 13.7394 11.8222C13.4706 12.0752 13.2809 12.2808 13.1702 12.4389C13.0595 12.597 12.9844 12.7789 12.9448 12.9844C12.9132 13.1821 12.8302 13.3442 12.6958 13.4707C12.5614 13.5972 12.4032 13.6604 12.2214 13.6604ZM12.2095 16.5067C11.9486 16.5067 11.7254 16.4139 11.5397 16.2283C11.3537 16.0423 11.2608 15.8189 11.2608 15.558C11.2608 15.2971 11.3537 15.0736 11.5397 14.8877C11.7254 14.702 11.9486 14.6092 12.2095 14.6092C12.4705 14.6092 12.6939 14.702 12.8798 14.8877C13.0655 15.0736 13.1583 15.2971 13.1583 15.558C13.1583 15.8189 13.0655 16.0423 12.8798 16.2283C12.6939 16.4139 12.4705 16.5067 12.2095 16.5067Z" fill="currentColor"/>
</svg>
