<svg width="19" height="18" viewBox="0 0 19 18" fill="none" xmlns="http://www.w3.org/2000/svg">
<path d="M1.31616 9.9375C3.09925 10.1494 4.75921 10.955 6.02892 12.2247C7.29863 13.4945 8.10425 15.1544 8.31616 16.9375C9.20008 16.4279 9.93945 15.7013 10.4644 14.8264C10.9893 13.9515 11.2825 12.9572 11.3162 11.9375C12.9953 11.3468 14.4615 10.2715 15.5295 8.84751C16.5975 7.42353 17.2193 5.71484 17.3162 3.9375C17.3162 3.14185 17.0001 2.37879 16.4375 1.81618C15.8749 1.25357 15.1118 0.9375 14.3162 0.9375C12.5388 1.03441 10.8301 1.65617 9.40615 2.72415C7.98217 3.79214 6.90685 5.25839 6.31616 6.9375C5.29643 6.97118 4.30212 7.26434 3.42723 7.78927C2.55233 8.31421 1.82575 9.05358 1.31616 9.9375Z" stroke="currentColor" stroke-width="1.5" stroke-linecap="round" stroke-linejoin="round"/>
<path d="M4.31615 10.9375C3.27539 11.5251 2.43381 12.4101 1.89931 13.4791C1.36481 14.5481 1.16175 15.7523 1.31615 16.9375C2.50131 17.0919 3.70558 16.8888 4.77458 16.3543C5.84357 15.8198 6.72858 14.9783 7.31615 13.9375M11.3162 5.9375C11.3162 6.20272 11.4215 6.45707 11.609 6.64461C11.7966 6.83214 12.0509 6.9375 12.3162 6.9375C12.5814 6.9375 12.8357 6.83214 13.0233 6.64461C13.2108 6.45707 13.3162 6.20272 13.3162 5.9375C13.3162 5.67228 13.2108 5.41793 13.0233 5.23039C12.8357 5.04286 12.5814 4.9375 12.3162 4.9375C12.0509 4.9375 11.7966 5.04286 11.609 5.23039C11.4215 5.41793 11.3162 5.67228 11.3162 5.9375Z" stroke="currentColor" stroke-width="1.5" stroke-linecap="round" stroke-linejoin="round"/>
</svg>
