<svg width="25" height="24" viewBox="0 0 25 24" fill="none" xmlns="http://www.w3.org/2000/svg">
<path d="M9.31604 22H15.316C20.316 22 22.316 20 22.316 15V9C22.316 4 20.316 2 15.316 2H9.31604C4.31604 2 2.31604 4 2.31604 9V15C2.31604 20 4.31604 22 9.31604 22Z" stroke="currentColor" stroke-width="1.5" stroke-linecap="round" stroke-linejoin="round"/>
<path d="M7.31604 8.75C8.31604 7.75 9.94604 7.75 10.956 8.75" stroke="currentColor" stroke-width="1.5" stroke-miterlimit="10" stroke-linecap="round" stroke-linejoin="round"/>
<path d="M13.6754 8.75C14.6754 7.75 16.3054 7.75 17.3154 8.75" stroke="currentColor" stroke-width="1.5" stroke-miterlimit="10" stroke-linecap="round" stroke-linejoin="round"/>
<path d="M8.71604 17.7H15.916C16.416 17.7 16.816 17.3 16.816 16.8C16.816 14.31 14.806 12.3 12.316 12.3C9.82604 12.3 7.81604 14.31 7.81604 16.8C7.81604 17.3 8.21604 17.7 8.71604 17.7Z" stroke="currentColor" stroke-width="1.5" stroke-miterlimit="10" stroke-linecap="round" stroke-linejoin="round"/>
</svg>
