<svg width="25" height="25" viewBox="0 0 25 25" fill="none" xmlns="http://www.w3.org/2000/svg">
<path d="M14.5461 4.37L16.3061 7.89C16.5461 8.38 17.1861 8.85 17.7261 8.94L20.9161 9.47C22.9561 9.81 23.4361 11.29 21.9661 12.75L19.4861 15.23C19.0661 15.65 18.8361 16.46 18.9661 17.04L19.6761 20.11C20.2361 22.54 18.9461 23.48 16.7961 22.21L13.8061 20.44C13.2661 20.12 12.3761 20.12 11.8261 20.44L8.83607 22.21C6.69607 23.48 5.39607 22.53 5.95607 20.11L6.66607 17.04C6.79607 16.46 6.56607 15.65 6.14607 15.23L3.66607 12.75C2.20607 11.29 2.67607 9.81 4.71607 9.47L7.90607 8.94C8.43607 8.85 9.07607 8.38 9.31607 7.89L11.0761 4.37C12.0361 2.46 13.5961 2.46 14.5461 4.37Z" fill="currentColor" stroke="currentColor" stroke-width="1.5" stroke-linecap="round" stroke-linejoin="round"/>
</svg>
