<svg width="18" height="19" viewBox="0 0 18 19" fill="none" xmlns="http://www.w3.org/2000/svg">
<g clip-path="url(#clip0_1127_43)">
<path d="M3.1 18.14V7.14004C3.1 7.14004 3.12 7.08004 3.12 7.04004H0.62C0.45 7.04004 0.3 7.11004 0.18 7.22004C0.06 7.34004 0 7.50004 0 7.66004V17.87C0 18.04 0.07 18.19 0.18 18.31C0.3 18.43 0.46 18.49 0.62 18.49H3.2C3.14 18.38 3.1 18.26 3.1 18.13V18.14Z" fill="currentColor"/>
<path d="M17.55 8.73003C17.49 8.42003 17.36 8.12004 17.16 7.87004C16.97 7.62004 16.71 7.41004 16.43 7.27004C16.15 7.13004 15.83 7.05004 15.51 7.05004H10.74C10.64 7.05004 10.55 7.03004 10.46 6.98004C10.37 6.94004 10.3 6.87004 10.24 6.79004C10.18 6.71004 10.14 6.62004 10.13 6.53004C10.11 6.43004 10.12 6.34004 10.15 6.24004L11.21 2.69004C11.33 2.29004 11.3 1.87004 11.13 1.49004C10.96 1.11004 10.65 0.810035 10.27 0.650035C9.89002 0.480035 9.46002 0.460035 9.07002 0.580035C8.68002 0.710035 8.34002 0.970035 8.13002 1.33004L5.31002 6.04004C5.12002 6.35004 4.86002 6.60004 4.55002 6.78004C4.54002 6.78004 4.53002 6.78004 4.52002 6.79004C4.58002 6.90004 4.62002 7.01004 4.62002 7.14004V18.14C4.62002 18.27 4.58002 18.39 4.52002 18.5H13.54C14 18.5 14.44 18.35 14.8 18.07C15.16 17.79 15.42 17.4 15.54 16.96L17.53 9.67004C17.61 9.36004 17.63 9.04004 17.56 8.72004L17.55 8.73003Z" fill="currentColor"/>
</g>
<defs>
<clipPath id="clip0_1127_43">
<rect width="17.58" height="18" fill="white" transform="translate(0 0.5)"/>
</clipPath>
</defs>
</svg>
