<?xml version="1.0" encoding="UTF-8"?>
<svg width="12px" height="17px" viewBox="0 0 12 17" version="1.1" xmlns="http://www.w3.org/2000/svg" xmlns:xlink="http://www.w3.org/1999/xlink">
    <title>dashicon</title>
    <g id="plugin" stroke="none" stroke-width="1" fill="none" fill-rule="evenodd">
        <g id="add-new-bulletin-(free)" transform="translate(-1565.000000, -618.000000)" fill="#FFFFFF" fill-rule="nonzero">
            <g id="dashicon" transform="translate(1565.000000, 618.000000)">
                <path d="M8.89054008,1.58066103 C8.12063456,0.533614193 6.80522433,0 3.57292213,0 C-0.533673768,0 0.0256332257,0.329594096 0.0256332257,4.21820708 L0.0256332257,9.00738389 C0.0256332257,9.7773957 0.358537185,11.1066282 1.96572965,11.1066282 C3.57292213,11.1066282 3.87036525,9.93728924 3.87036525,9.00738389 C3.87036525,8.07747854 3.87036525,3.35477842 3.87036525,2.62770789 C3.87036525,1.90063736 3.87036525,1.90063736 4.68443783,1.90178907 C6.90819747,1.90493515 7.17486777,4.23641088 6.80522433,5.3759103 C6.68957304,5.73242837 6.39664736,6.12307713 6.22963263,6.09184366 C6.22814658,6.09157175 5.85221937,6.09184366 5.85043611,6.09184366 C5.15763537,6.09048411 4.97985695,6.09184366 4.97985695,6.56371969 L4.98817888,8.07967433 C5.00080727,8.92984602 5.00080727,9.44293518 6.17837099,9.44293518 C8.13135923,9.44293518 9.54359601,12.5528627 6.98781997,14.8915674 C5.742878,16.0307719 3.54878207,16.7299642 1.8739935,15.7937713 C3.71808606,15.7937713 4.35451388,14.8306209 4.35451388,13.8558547 C4.35451388,12.8810885 3.47507355,11.9225692 2.18755196,11.9225692 C0.764799008,11.9225692 0.0990445438,12.980842 0.0990445438,13.9050708 C0.0990445438,15.2069853 1.63004382,16.952752 5.36623232,16.999157 C10.1974268,17.0591625 12,13.9050708 12,10.930082 C12,8.51088126 10.0957639,7.032224 8.35915528,6.61973355 C10.1974268,4.8321092 9.66044559,2.62770789 8.89054008,1.58066103 Z" id="Combined-Shape"></path>
            </g>
        </g>
    </g>
</svg>