<?xml version="1.0" encoding="UTF-8"?>
<svg width="46px" height="46px" viewBox="0 0 46 46" version="1.1" xmlns="http://www.w3.org/2000/svg" xmlns:xlink="http://www.w3.org/1999/xlink">
    <title>iconfinder_growth-bars_4201695</title>
    <g id="plugin" stroke="none" stroke-width="1" fill="none" fill-rule="evenodd">
        <g id="add-new-bulletin-(free)" transform="translate(-1328.000000, -736.000000)" fill="#324760" fill-rule="nonzero">
            <g id="iconfinder_growth-bars_4201695" transform="translate(1328.000000, 736.000000)">
                <path d="M2.85319244,30.5098622 C2.82481638,31.5221447 2.86250619,32.5351973 2.96602268,33.5425909 C3.2922808,33.582626 3.6205556,33.6041123 3.94925769,33.6069459 C3.94925769,33.6069459 3.82030884,31.7326069 3.83642744,31.6441188 C3.85254605,31.5556307 5.19844971,31.6441188 5.36769508,31.5154089 C5.53694045,31.3866989 5.45634741,30.7109715 5.4160509,30.5098622 C5.37575438,30.3087529 3.0143785,30.4213741 2.85319244,30.5098622 L2.85319244,30.5098622 Z M19.5117724,25.8119483 C19.2458154,25.9406582 19.5117724,29.5686705 19.5117724,29.6571587 C19.7511713,29.7050487 19.9977109,29.7050487 20.2371097,29.6571587 C20.3140818,28.6745632 20.3140818,27.6874691 20.2371097,26.7048737 C20.2371097,26.5278975 21.9618006,26.7048737 22.1149274,26.7048737 C22.2680542,26.7048737 22.2438762,26.0291463 22.1632832,25.7878151 C22.0826902,25.5464839 19.7777294,25.6832383 19.5117724,25.8119483 L19.5117724,25.8119483 Z M6.33481147,27.4932223 C3.16750527,27.7345535 0.540172383,28.1287277 0.338689799,28.3861477 C0.137207216,28.6435676 0.338689799,31.0086134 0.556290989,33.8321883 C0.773892179,36.6557633 1.0640271,44.1370304 1.24133177,45.1425771 C1.41863645,46.1481237 2.31321911,45.9470144 3.40928437,45.9952806 C4.50534962,46.0435469 9.17974555,45.7056832 10.5578864,45.7056832 C11.9360273,45.7056832 12.0488575,45.2310652 12.2261622,44.7484028 C12.4034669,44.2657404 12.3309331,29.9387117 12.2261622,28.522902 C12.1213913,27.1070923 9.51017699,27.2518911 6.33481147,27.4932223 Z M10.6868353,37.8463306 C10.6868353,37.9348187 10.7351911,39.3104065 10.7351911,39.3104065 C10.2306755,38.7260382 9.67508035,38.1876247 9.07497461,37.7015319 C8.93796645,37.7658868 8.59141641,38.264638 8.65589083,38.3772592 C8.72036526,38.4898804 10.8238434,40.2998644 10.8238434,40.4285744 L10.8238434,41.5226091 C10.0717542,40.666168 9.26408306,39.8599932 8.40605243,39.1092972 C8.20929386,39.3676113 8.0263608,39.6361322 7.8580198,39.9137345 C7.8580198,39.9137345 10.8319027,42.5281558 10.8319027,42.6809989 C10.8319027,42.833842 10.8721992,44.1450748 10.8721992,44.1450748 C10.7273958,44.1574303 10.5818003,44.1574303 10.4369969,44.1450748 C10.3483445,44.1450748 7.6162407,40.5894618 7.52758837,40.6055506 C7.43893603,40.6216393 6.8909034,41.152568 6.93925922,41.2410561 C6.98761504,41.3295442 9.58271072,44.3461841 9.58271072,44.3461841 L8.54306059,44.3461841 C7.87384743,43.4392631 7.15268055,42.5717057 6.38316729,41.7478516 C6.20586262,41.7478516 5.74648233,42.2707358 5.78677885,42.3592239 C6.40713225,43.0266046 6.99351358,43.7246629 7.54370697,44.450761 C7.27658733,44.4862918 7.00723621,44.5024229 6.73777664,44.4990272 C6.25172785,43.8817806 5.72681203,43.2960387 5.16621249,42.7453539 C4.98890782,42.7453539 4.36028216,43.2119275 4.4650531,43.3406375 C4.86821531,43.7549629 5.2399673,44.1986256 5.57723696,44.6679591 C5.51276254,44.7162253 2.66782846,44.7162253 2.66782846,44.7162253 C2.66782846,44.7162253 2.34545633,38.4898804 2.16815165,35.8030598 C1.99084698,33.1162391 1.53146669,29.7134693 1.68459345,29.5123599 C3.28396367,29.0431053 4.94180319,28.8020671 6.60882779,28.7964107 C9.3006351,28.6596564 10.8319027,28.7320557 10.8721992,28.7964107 C10.9124958,28.8607657 10.7674283,36.7925177 10.7674283,36.7925177 C10.7674283,36.7925177 9.63106653,35.8111042 9.47793977,35.8915479 C9.32481301,35.9719916 9.08303391,36.3983434 9.14750834,36.4868315 C9.21198276,36.5753196 10.6707167,37.7578425 10.6868353,37.8463306 L10.6868353,37.8463306 Z M27.5630164,23.5595238 C27.0391617,22.7550864 24.9759801,23.0205508 22.4372995,23.1733938 C20.9011966,23.2171933 19.3778853,23.466099 17.9079711,23.9134762 C16.7957872,24.3317836 16.9086174,27.5173554 17.0133884,31.4671426 C17.1181593,35.4169299 17.3841163,43.2199719 17.4485908,44.4024947 C17.5130652,45.5850176 18.2545211,45.5367514 19.2216375,45.6413282 C20.1887539,45.7459051 26.0075709,45.6895945 27.1197548,45.6413282 C28.2319386,45.593062 28.3286503,44.1370304 28.3286503,43.654368 C28.3286503,43.1717056 28.3931247,40.29182 28.3286503,33.7839221 C28.2641758,27.2760242 28.0868712,24.3961386 27.5630164,23.5595238 L27.5630164,23.5595238 Z M25.3064115,34.966445 C25.9117177,35.3768644 26.4879788,35.8284183 27.0311024,36.3178997 L27.0311024,37.5406444 C26.4728474,37.0152836 25.8746706,36.5338635 25.2419371,36.1007016 C25.1049289,36.1409235 24.9356836,36.9051389 24.9759801,36.9694939 C25.0162766,37.0338489 27.0311024,38.4577029 27.0311024,38.5220579 C27.0311024,38.5864129 27.0311024,39.6563145 27.0311024,39.6563145 C27.0311024,39.6563145 24.6133114,37.9589518 24.5165998,37.9750405 C24.4198881,37.9911293 24.1216939,38.6346792 24.2103463,38.7794779 C24.2989986,38.9242766 27.0311024,40.7503493 27.0311024,40.7503493 L27.0311024,42.1902921 C27.0311024,42.1902921 23.9927451,39.8574239 23.8073811,39.8574239 C23.6220171,39.8574239 23.3641194,40.6216393 23.4527717,40.7101274 C23.5414241,40.7986155 27.0391617,42.9786407 27.0633396,43.1958388 C27.0673932,43.4966874 27.0539384,43.7975172 27.0230431,44.0968086 L26.6684338,44.1611635 C26.6684338,44.1611635 23.0014508,41.3375885 22.767731,41.4099879 C22.5340112,41.4823873 22.2680542,42.0213603 22.3325286,42.1500702 C22.397003,42.2787802 25.6529615,44.2898735 25.6529615,44.2898735 L24.2345242,44.2898735 C24.2345242,44.2898735 22.1149274,42.9545076 22.0262751,42.9786407 C21.9376227,43.0027738 21.5427169,43.6945899 21.6071913,43.783078 C21.6716657,43.8715661 23.2190519,44.5070716 23.0981624,44.5070716 C22.9772728,44.5070716 19.0040363,44.5070716 18.915384,44.3944504 C18.8267316,44.2818291 18.4801816,35.312353 18.3915293,31.2660333 C18.2812449,29.1453736 18.3540474,27.019174 18.6091304,24.9109785 C18.6816642,24.7903129 23.6220171,24.5248485 24.9759801,24.4122273 C26.329943,24.2996061 26.6603745,24.2835173 26.6603745,24.4122273 C26.6603745,24.5409373 27.0311024,35.2882199 27.0311024,35.2882199 C27.0311024,35.2882199 25.8302662,34.1378745 25.7416139,34.2585401 C25.6529615,34.3792057 25.1935813,34.8779569 25.3064115,34.966445 L25.3064115,34.966445 Z M45.1484163,0.0458208777 C44.4956127,0.263018954 35.4772523,3.971475 35.3080069,4.32542742 C35.1387616,4.67937984 37.5081967,7.334023 37.5081967,7.334023 C36.0664411,8.69039769 34.5459782,9.96092272 32.9546904,11.1390115 C30.18229,13.2305486 20.9946842,18.0813056 14.2571066,20.5831057 C9.88206575,22.144805 5.28909646,23.0133825 0.644943326,23.1573051 C0.16944443,23.2457932 -0.0965125802,23.0285951 0.032436273,23.9054318 C0.104970003,24.3720055 0.080792093,24.6455141 3.75583441,24.4283161 C7.43087673,24.211118 11.2832237,23.4227694 22.8322054,18.4835243 C34.3811871,13.5442791 38.8057446,8.46827963 38.8057446,8.46827963 C38.8057446,8.46827963 40.7319181,10.1254205 41.3041286,10.6563491 C41.5283979,10.9472534 41.8752924,11.1177107 42.2430374,11.1177107 C42.6107825,11.1177107 42.957677,10.9472534 43.1819463,10.6563491 C43.8428092,9.95648867 45.5997373,3.05441646 45.8979315,1.74318362 C46.1961257,0.431950792 45.8092792,-0.179421572 45.1484163,0.0458208777 L45.1484163,0.0458208777 Z M43.359251,6.90767122 C42.9643451,8.21890406 42.6580916,9.7071131 42.2631857,9.53013689 C40.3536743,8.2130577 38.682978,6.58082154 37.3228328,4.70351296 C37.1052316,4.35760492 39.4182516,3.95538626 40.9978751,3.30379203 C42.5774985,2.6521978 44.3183081,1.69491739 44.4956127,1.69491739 C44.6729174,1.69491739 43.7541568,5.58839402 43.359251,6.90767122 L43.359251,6.90767122 Z M42.6822695,17.0194483 C41.6506787,17.0194483 35.9608105,17.0194483 34.3650684,17.1079364 C33.8954435,17.1033165 33.4471555,17.3033723 33.137452,17.6557802 C32.8277486,18.0081881 32.6874343,18.4778958 32.7532078,18.9420535 L32.7532078,31.4993201 C32.7532078,31.4993201 32.7532078,42.5281558 32.8418601,43.9680986 C32.9305125,45.4080414 33.7445021,45.4080414 34.5746103,45.4965295 C35.4047186,45.5850176 40.7399774,45.4965295 42.271245,45.3678195 C43.8025126,45.2391096 43.7380382,45.0380002 44.1087662,44.4266279 C44.4794941,43.8152555 44.4633755,43.2521494 44.503672,38.6427235 C44.5439685,34.0332977 44.2618929,20.2935082 44.2457743,18.9822754 C44.2296557,17.6710426 43.705801,16.9872709 42.6822695,17.011404 L42.6822695,17.0194483 Z M39.7245052,37.4119344 C39.9421063,37.6291325 42.9482265,39.7448027 43.0046416,39.8252464 C43.0538744,40.2232725 43.0538744,40.6258318 43.0046416,41.023858 C42.9401672,40.9192811 39.7809203,38.2968155 39.4827261,38.4013923 C39.1845318,38.5059692 39.0878202,39.2058296 39.1603539,39.3023621 C39.2328877,39.3988946 42.9240486,41.7156741 42.9240486,41.9167834 L42.9240486,43.3406375 L39.0717016,40.5411956 C39.0717016,40.5411956 38.6284399,41.2249673 38.7170922,41.3054111 C38.8057446,41.3858548 42.3276601,43.718723 42.1745334,43.718723 C41.6123068,43.7285195 41.0499702,43.7070345 40.490139,43.654368 C40.2967157,43.590013 38.1932375,42.0454934 37.886984,42.230514 C37.5807305,42.4155346 37.3631293,42.7131764 37.4517816,42.8901526 C37.540434,43.0671288 39.2893028,43.9600542 39.240947,44.0244092 C39.1925911,44.0887642 34.6068475,44.3059623 34.300594,43.976143 C33.9943405,43.6463237 34.2119417,31.9095831 34.1232893,28.0161065 C34.034637,24.1226299 34.034637,18.8857429 34.1877638,18.5317905 C34.3408905,18.1778381 37.540434,18.3145924 38.9830493,18.3145924 C40.2448705,18.2848812 41.5063345,18.3873369 42.7467439,18.6202786 C42.7467439,18.757033 42.8353962,28.7561889 42.8353962,28.7561889 C42.8353962,28.7561889 41.2235356,27.2518911 40.9978751,27.4047342 C40.7918065,27.5821953 40.6643472,27.8337501 40.6432657,28.1045946 C41.3934611,28.6094948 42.1095964,29.1630683 42.7870404,29.7617355 L42.7870404,31.0247021 C42.215758,30.3925828 41.5930685,29.8087157 40.9253414,29.2790731 C40.7963925,29.3434281 40.6432657,30.0835104 40.6432657,30.0835104 C40.6432657,30.0835104 42.7870404,32.0946037 42.8112183,32.2233137 C42.8353962,32.3520237 42.8756928,33.5989015 42.8756928,33.5989015 C42.8756928,33.5989015 40.6029692,31.8452282 40.5546134,31.9256719 C40.5062576,32.0061156 40.1838854,32.6255324 40.2967157,32.7301092 C40.4095459,32.8346861 42.8756928,34.5883594 42.8756928,34.6527144 C42.8756928,34.7170694 42.8756928,36.0524354 42.8756928,36.0524354 C42.8756928,36.0524354 40.224182,33.9367652 40.1355296,34.0011202 C40.0297943,34.2465375 39.9514167,34.5028161 39.9018098,34.7653356 C39.9018098,34.7653356 42.9159893,37.122337 42.9401672,37.2993132 C42.9643451,37.4762894 43.069116,38.9081878 43.069116,38.9081878 L39.9259877,36.4466096 C39.9259877,36.4466096 39.506904,37.1947363 39.7245052,37.4119344 L39.7245052,37.4119344 Z M34.8889232,19.7143134 C34.8310985,20.7867342 34.8472553,21.8618554 34.937279,22.9320627 C34.937279,23.0446839 35.7432093,23.0446839 35.8721582,22.9803289 C35.9481056,22.2233696 35.9481056,21.4607306 35.8721582,20.7037713 C35.8721582,20.5750613 37.3792479,20.7037713 37.4840188,20.5509282 C37.5887898,20.3980851 37.4840188,20.0280439 37.5646119,19.7464909 C37.6452049,19.4649378 34.9775755,19.5856034 34.8889232,19.6982246 L34.8889232,19.7143134 Z" id="Shape"></path>
            </g>
        </g>
    </g>
</svg>