<?xml version="1.0" encoding="UTF-8"?>
<svg width="47px" height="47px" viewBox="0 0 47 47" version="1.1" xmlns="http://www.w3.org/2000/svg" xmlns:xlink="http://www.w3.org/1999/xlink">
    <title>iconfinder_influencer-star_4254780</title>
    <g id="plugin" stroke="none" stroke-width="1" fill="none" fill-rule="evenodd">
        <g id="add-new-bulletin-(free)" transform="translate(-1328.000000, -822.000000)" fill="#324760" fill-rule="nonzero">
            <g id="iconfinder_influencer-star_4254780" transform="translate(1328.000000, 822.000000)">
                <path d="M22.4671198,13.722585 C21.6066757,13.9200991 20.9550278,14.6311578 20.826879,15.5123664 C20.826879,15.7002935 21.3322505,15.8971694 21.5007077,15.8971694 C21.6691648,15.8971694 21.5982355,15.7271402 21.890819,15.1902058 C22.1834025,14.6532713 22.7331048,14.5369356 22.8749635,14.2953151 C23.0168221,14.0536946 22.7331048,13.6330959 22.4671198,13.722585 Z M15.0550047,36.0948529 C14.974432,38.4518448 15.0129019,40.8114497 15.1702649,43.1644896 C15.396613,43.3442395 15.7007278,43.3885771 15.9682199,43.2808254 C16.120941,40.9364933 16.1534937,38.58576 16.0657477,36.2380355 C15.9416214,36.0501084 15.1702649,35.8353346 15.0550047,36.0769551 L15.0550047,36.0948529 Z M7.47443252,22.787828 C6.92867558,22.0452513 6.44526963,21.2579984 6.0292474,20.4342654 C5.93171957,20.2373894 5.23129243,20.1121047 4.86777961,20.3089807 C4.50426679,20.5058566 3.43146066,23.4768938 3.33393283,23.5395362 C3.236405,23.6021785 0.612019759,24.2912444 0.31943627,24.4344269 C-0.00160312186,24.647686 -0.0959603059,25.0802241 0.106648277,25.4098578 C0.853831515,26.3468776 1.64996012,27.2430392 2.49164703,28.0945299 C2.49164703,28.0945299 1.74688905,30.9850269 1.72029055,31.6203994 C1.69369205,32.2557718 2.75763202,32.1483849 3.01475084,32.1752316 C4.01743827,31.6691901 4.98331667,31.09203 5.90512107,30.4480925 C5.90512107,30.4480925 8.48517548,31.7635819 8.8220898,31.8620199 C9.31615431,31.8710481 9.77278659,31.5972842 10.0012899,31.1550562 C10.0456208,30.8149977 9.06147629,27.3607195 9.06147629,27.3607195 C9.94034145,26.6109796 10.775176,25.8101867 11.5617352,24.9624124 C11.8543187,24.4970692 11.4642074,23.8616968 11.1538916,23.5753318 C10.8435757,23.2889668 7.74041751,22.9578572 7.47443252,22.787828 L7.47443252,22.787828 Z M7.82907917,27.1638436 C7.78474834,27.5039021 8.71569581,30.5107349 8.60043564,30.5644283 C8.48517548,30.6181218 6.31296472,29.0789097 5.87852257,29.248939 C5.02015613,29.7433796 4.13177994,30.1827462 3.21867267,30.5644283 C3.14774334,30.4212458 3.83930431,27.4502086 3.76837498,27.3517706 C3.69744565,27.2533327 1.42770706,25.2666753 1.52523489,25.0697993 C1.62276272,24.8729233 4.3180773,24.4165291 4.36240813,24.3180911 C4.40673896,24.2196531 5.1337646,21.4007474 5.37315109,21.4544408 C5.61253758,21.5081342 6.70307604,23.7364121 6.94246254,23.8348501 C7.18184903,23.9332881 10.4889291,24.3717845 10.4889291,24.613405 C10.4889291,24.8550255 7.88227617,26.8237851 7.82907917,27.1638436 L7.82907917,27.1638436 Z M10.5509922,21.2307181 C10.6655484,20.2194559 10.6266818,19.1964759 10.4357321,18.1970386 C10.2672749,18.0001626 9.46931995,18.250732 9.46931995,18.3939145 C9.46931995,18.7071263 9.46931995,21.0785867 9.56684778,21.2128203 C9.88842417,21.3005385 10.2264938,21.3066867 10.5509922,21.2307181 L10.5509922,21.2307181 Z M22.6621755,42.7080954 C22.4684279,44.0783086 22.4923716,45.4709385 22.7331048,46.8335416 C22.9281605,47.1020088 23.4512643,47.0035708 23.6197214,46.8335416 C23.7258394,45.4754162 23.7258394,44.1109653 23.6197214,42.7528399 C23.5487921,42.4396281 22.7685695,42.5380661 22.6621755,42.6633508 L22.6621755,42.7080954 Z M8.47630931,34.0097576 C8.37966013,35.9695836 8.41224129,37.9337277 8.57383714,39.8891896 C8.86739726,40.0057966 9.19902538,39.9689771 9.46045378,39.7907516 C9.72643877,39.5759778 9.50478461,34.2961226 9.46045378,34.1260934 C9.41612295,33.9560641 8.60930181,33.8397283 8.50290781,33.965013 L8.47630931,34.0097576 Z M5.20469393,33.1864581 C5.20469393,33.4996699 5.20469393,41.294168 5.39974959,41.4641973 C5.71202323,41.6081475 6.07651735,41.5740831 6.35729556,41.3747082 C6.50802038,41.2046789 6.35729556,33.5981078 6.26863389,33.2759472 C6.17997223,32.9537865 5.23129243,32.9448376 5.23129243,33.1417136 L5.20469393,33.1864581 Z M46.9999016,30.2959611 C46.9999016,29.7858734 43.5065326,29.2220922 43.1962168,29.150501 C42.8859009,29.0789097 41.7244331,26.161566 41.077203,26.161566 C40.4299729,26.161566 38.9315907,29.4189682 38.8872599,29.535304 C38.8429291,29.6516398 35.7841017,30.6807641 35.4915182,30.8507933 C34.9329497,31.1640051 35.3496595,31.7456841 35.4915182,31.94256 C35.6333769,32.139436 37.8942493,33.6696991 37.8942493,33.7323415 C37.8942493,33.7949838 37.3179485,37.0613349 37.5130041,37.3119043 C37.9917771,37.8935833 39.1709772,37.7056562 39.6320179,37.4550868 C40.0930585,37.2045174 41.0062737,35.8532325 41.289991,35.7816412 C41.5737083,35.7100499 43.7193206,37.7951453 44.0119041,37.9025322 C44.3044875,38.0099191 45.1467734,37.634065 45.288632,37.1239773 C45.4304907,36.6138896 44.6591342,34.0097576 44.6591342,33.8665751 C44.6591342,33.7233925 47.0175345,30.8060488 46.9999016,30.2959611 Z M43.4533356,33.3296406 C43.4533356,33.7233925 44.1537627,36.1753931 43.9587071,36.3185756 C43.7636514,36.4617581 41.4584481,34.3766628 41.1658647,34.5287942 C40.8732812,34.6809256 38.9759216,36.5959917 38.7808659,36.5512472 C38.5858103,36.5065027 39.3837652,33.2669983 39.3128359,33.1506625 C39.2419066,33.0343267 36.5909228,31.4235234 36.7150491,31.2803409 C36.8391755,31.1371584 39.4635607,30.6360196 39.6320179,30.3228078 C39.800475,30.0095961 40.7846195,27.5217999 41.0062737,27.5754933 C41.2279278,27.6291868 42.034749,30.0006472 42.5223881,30.2601655 C43.0100273,30.5196838 45.50142,30.7702532 45.4570892,31.0387204 C45.4127583,31.3071876 43.3824062,32.9448376 43.4090047,33.3206917 L43.4533356,33.3296406 Z M36.6175213,18.5370971 C36.4901598,20.6242831 36.5168319,22.718141 36.6973168,24.8013321 C36.9940645,24.9721526 37.3581151,24.9721526 37.6548628,24.8013321 C37.8022182,22.7159022 37.8022182,20.6225269 37.6548628,18.5370971 C37.5839335,18.3670678 36.7327815,18.3312722 36.6175213,18.5370971 L36.6175213,18.5370971 Z M37.6903274,40.0860655 C37.6105965,41.5133354 37.6580736,42.9449495 37.8321861,44.3636432 C38.1179484,44.4721519 38.4330404,44.4721519 38.7188027,44.3636432 C38.7646967,42.9272478 38.717309,41.4893606 38.5769441,40.0592188 C38.5769441,39.8712918 37.8055876,39.8981385 37.6903274,40.0860655 L37.6903274,40.0860655 Z M29.4536589,33.3833341 C29.1167446,32.8463996 25.6057427,33.2848961 25.6057427,33.2848961 C25.6057427,33.2848961 24.2048884,30.6002239 23.5133274,30.5375816 C22.8217665,30.4749392 21.412046,33.6249546 21.412046,33.6249546 C20.2517112,33.795133 19.1028498,34.0372109 17.9719735,34.349816 C17.0321598,34.6898745 17.4400035,35.3520937 17.7769178,35.7368967 C18.1138321,36.1216997 20.1885151,38.2157439 20.1885151,38.2157439 C19.8277256,39.071651 19.5139779,39.9469901 19.2487014,40.8377738 C19.0093149,41.7863579 19.1245751,42.1980076 19.4880879,42.4664749 C19.8516007,42.7349421 20.6406896,42.5201683 21.0751317,42.2964456 C21.9522243,41.5573775 22.7814362,40.7622748 23.5576583,39.9160363 C24.5608097,40.7932809 25.6376761,41.580771 26.7760767,42.2695989 C27.1087413,42.5221815 27.5446982,42.5896351 27.9370487,42.4492309 C28.3293992,42.3088266 28.6258963,41.9792612 28.7266333,41.5715841 C28.384071,40.1335253 27.9667844,38.7146539 27.4765038,37.3208532 C27.4765038,37.3208532 29.8083056,33.9113196 29.4713912,33.3833341 L29.4536589,33.3833341 Z M26.3416345,37.338751 C26.7618877,38.6338536 27.0849381,39.9590543 27.3080466,41.3031169 C27.1573218,41.3747082 23.9832343,38.6184448 23.6995169,38.6184448 C23.4157996,38.6184448 20.7825482,41.4194527 20.5165632,41.3031169 C20.2505782,41.1867811 21.4829754,38.117306 21.4563769,37.9741235 C21.4297784,37.8309409 18.9295194,35.2894513 19.0004488,35.1373199 C19.0713781,34.9851885 22.2543318,34.5735387 22.2543318,34.5019475 C22.5706483,33.588357 22.9901197,32.7145602 23.5044613,31.8978155 C23.7172493,31.8978155 24.4620072,34.3050715 24.8255201,34.349816 C25.1890329,34.3945606 27.9730091,34.2513781 28.0262061,34.349816 C28.0794031,34.448254 26.2441067,37.150824 26.3416345,37.338751 L26.3416345,37.338751 Z M41.0062737,38.7526784 C40.9067246,40.7182735 40.9363433,42.6883668 41.0949353,44.6500082 C41.3880788,44.8293402 41.7504738,44.8494747 42.0613475,44.7037017 C42.1524021,42.7343749 42.1109313,40.761081 41.9372211,38.7974229 C41.8485595,38.5826491 41.0683368,38.690036 41.0062737,38.7526784 L41.0062737,38.7526784 Z M39.4635607,12.657665 C39.7738765,12.0491394 39.0025201,11.2705844 38.6656057,11.1274019 C38.3286914,10.9842194 31.111632,9.33762048 31.111632,9.33762048 C31.111632,9.33762048 29.9324319,7.97738659 29.1078784,6.83192647 C28.2833249,5.68646636 24.0807621,0.084450462 22.9458928,0.00391029737 C21.8110235,-0.0766298672 21.092864,1.10462588 20.6140911,1.91897643 C20.1353181,2.73332699 16.3760635,9.97299289 16.3760635,9.97299289 C16.3760635,9.97299289 7.926607,12.568176 7.30597536,12.8903366 C6.68534371,13.2124973 7.30597536,14.393753 8.07733183,15.1991547 C8.8486883,16.0045563 13.8492061,20.8817107 13.8492061,20.8817107 C13.8492061,20.8817107 11.8543187,29.7411289 12.404021,30.8328955 C12.9537233,31.9246622 13.946734,31.6293483 15.6756364,30.7613043 C17.4045388,29.8932603 23.3360041,26.5016245 23.6551861,26.4837266 C23.9743681,26.4658288 30.4378034,30.5644283 31.7411298,30.7792021 C33.0444563,30.9939759 33.9044744,30.0006472 33.9310729,28.470384 C33.9576714,26.9401209 33.2572443,19.1903673 33.2572443,19.1903673 C33.2572443,19.1903673 39.1532449,13.2661907 39.4635607,12.657665 L39.4635607,12.657665 Z M26.2441067,26.0183835 C25.440527,25.4898744 24.6055342,25.0116985 23.7438478,24.5865583 C23.3360041,24.4881203 20.5431617,26.2868507 20.5431617,26.2152594 C20.5431617,26.1436682 20.6406896,21.6423679 21.2879197,21.1322801 C21.7932912,20.7385282 22.0060792,20.8459151 23.061153,20.8459151 C23.9160589,20.7570454 24.7798125,20.8641103 25.5880104,21.1591269 C26.0933819,21.4723386 26.2175082,22.0540176 26.261839,23.7632589 C26.30321,24.5145885 26.2972873,25.2678112 26.2441067,26.0183835 L26.2441067,26.0183835 Z M25.3574901,16.3535637 C25.5259472,16.4967462 26.2441067,17.3916369 26.1465789,17.5169216 C26.0688432,17.6277381 25.9828903,17.7324424 25.88946,17.8301334 C25.5609188,17.3650792 25.2056634,16.9198538 24.8255201,16.4967462 C24.6836614,16.425155 24.0541636,16.908396 24.1250929,17.0515785 C24.1960223,17.194761 25.3308916,18.4655058 25.1890329,18.5818416 C25.0471742,18.6981774 24.7545907,19.0203381 24.6304644,18.9219001 C24.5063381,18.8234621 23.6729184,17.6153596 23.433532,17.5616662 C23.1941455,17.5079727 22.5469153,17.7316954 22.6621755,17.9285714 C22.7774356,18.1254473 23.7172493,19.1903673 23.5487921,19.2619585 C23.380335,19.3335498 22.2011348,19.8704842 20.7293512,18.2238853 C19.2575676,16.5772864 19.4082924,13.0693148 23.3892011,12.854541 C24.7102599,12.7918987 26.1820435,13.4451689 26.6076195,14.3669063 C26.8273112,15.1337542 26.7867417,15.9527179 26.4923593,16.6936222 C26.4923593,16.6936222 25.9869879,15.8703227 25.8185307,15.7987315 C25.6500735,15.7271402 25.1890329,16.2014323 25.3574901,16.3177681 L25.3574901,16.3535637 Z M32.3706276,28.470384 C32.2553675,28.9804717 32.1578396,29.3026324 31.3155538,28.8820338 C30.473268,28.4614351 27.4144406,26.5821646 27.4144406,26.5821646 C27.4144406,26.5821646 27.6272286,22.2777403 27.1041248,21.3291561 C26.6181886,20.6616865 25.9401536,20.1616956 25.1624344,19.897331 C25.1624344,19.897331 27.9818753,18.7071263 27.8222843,15.843476 C27.6626933,12.9798257 25.6589397,11.4943071 22.6267108,11.9059568 C19.5944819,12.3176066 18.4596126,14.6711692 18.7255976,16.5683375 C18.9915826,18.4655058 21.2347227,20.0226157 21.2347227,20.0226157 C20.2214797,20.3659993 19.5185998,21.2989121 19.4614894,22.3761782 C19.2602668,23.8826398 19.2127316,25.4059664 19.3196308,26.9222231 C19.3196308,26.9222231 16.455859,28.568822 15.5426439,29.0073185 C14.6294288,29.4458149 14.3811761,29.6605887 14.2659159,29.5174062 C14.1506558,29.3742237 15.6845026,20.6758859 15.4894469,20.3358274 C15.2943912,19.9957689 9.11467329,14.0715924 9.13236754,13.8747164 C9.20333496,13.3288331 17.6350592,11.4943071 17.8035163,11.1900443 C17.9719735,10.8857814 22.3252612,1.58786687 22.688774,1.58786687 C23.0522868,1.58786687 29.6930454,10.536774 29.9856289,10.6083653 C30.2782124,10.6799566 37.3002161,12.3981467 37.2292868,12.6487161 C37.1583575,12.8992855 31.484011,18.6534329 31.4219478,19.0024402 C31.3598847,19.3514476 32.4592893,27.9513474 32.3706276,28.470384 L32.3706276,28.470384 Z M31.1470967,36.7570721 C31.1470967,36.953948 31.1470967,44.8110885 31.2446245,44.9453221 C31.5299297,45.0563387 31.845936,45.0563387 32.1312411,44.9453221 C32.283911,42.1796265 32.2987066,39.4079319 32.175572,36.6407363 C32.069178,36.3185756 31.1293643,36.6138896 31.111632,36.7570721 L31.1470967,36.7570721 Z" id="Shape"></path>
            </g>
        </g>
    </g>
</svg>