<?xml version="1.0" encoding="UTF-8"?>
<svg width="40px" height="52px" viewBox="0 0 40 52" version="1.1" xmlns="http://www.w3.org/2000/svg" xmlns:xlink="http://www.w3.org/1999/xlink">
    <title>iconfinder_knowledge_4335909</title>
    <g id="plugin" stroke="none" stroke-width="1" fill="none" fill-rule="evenodd">
        <g id="add-new-bulletin-(free)" transform="translate(-1330.000000, -653.000000)" fill="#324760" fill-rule="nonzero">
            <g id="iconfinder_knowledge_4335909" transform="translate(1330.000000, 653.000000)">
                <path d="M39.25,2.86 C39.2528583,2.27928236 39.0206789,1.72210533 38.6062947,1.31525538 C38.1919105,0.908405435 37.6305675,0.686487741 37.05,0.7 C35.83,0.7 27.24,0.7 19.58,1.27 C11.92,1.84 2,3 1.21,3.18 C0.16,3.39 0.4,5.18 0.56,6.85 C0.72,8.52 1.5,18.13 2,24.28 C2.5,30.43 3.06,43.58 3.06,45.7 C3.23467001,47.4806195 4.14898763,49.1060731 5.58,50.18 C6.53664031,50.1666492 7.49027754,50.0696124 8.43,49.89 C8.44150066,50.1667509 8.48171644,50.4415588 8.55,50.71 C8.78675315,51.0044015 9.11949558,51.2061708 9.49,51.28 C10.3646982,50.722085 11.182017,50.0789489 11.93,49.36 C11.93,49.36 12.3,49.77 13.07,50.46 C13.84,51.15 14.58,51.46 14.79,51.24 C15,51.02 14.91,49.89 14.91,49.89 C14.91,49.89 37.75,49.65 38.12,49.4 C38.49,49.15 38.24,43.26 38.24,43.26 C38.24,43.26 39.18,43.13 39.46,42.73 C39.74,42.33 39.33,4.12 39.25,2.86 Z M13.8,49.86 C13.1923883,49.2391489 12.522151,48.6828519 11.8,48.2 C11.53,48.2 9.69,50.02 9.55,49.91 C9.40776415,48.8389425 9.39098403,47.7549468 9.5,46.68 L13.84,46.43 L13.8,49.86 Z M35.63,47.97 C35.46,48.05 14.94,48.66 14.94,48.66 L14.94,46.5 C15.8215244,46.5799464 16.7084756,46.5799464 17.59,46.5 C17.59,46.34 17.42,45.36 17.3,45.36 L9.85,45.77 C8.38,45.85 7.24,45.97 7.16,46.18 C7.08,46.39 7.32,46.79 7.32,46.79 L8.38,46.91 L8.38,48.7 C7.69273738,48.7752788 7.00102263,48.8020117 6.31,48.78 C5.9,48.7 5.53,47.78 5.17,46.78 C4.88159109,46.1479777 4.86353275,45.4256442 5.12,44.78 C5.12,44.78 11.64,44.58 17.34,44.13 C23.04,43.68 34.49,43.03 34.81,43.13 C35.13,43.23 34.65,45.01 34.89,46.13 C35.13,47.25 35.79,47.86 35.63,47.94 L35.63,47.97 Z M37.34,47.89 C36.7865286,47.2371496 36.4570564,46.4239841 36.4,45.57 C36.1883956,44.7629205 36.3224613,43.9041753 36.77,43.2 L37.42,43.2 L37.34,47.89 Z M37.5,34.3 C37.5,34.46 37.5,35.97 37.5,35.97 C37.5,35.97 34.65,33.48 34.5,33.48 C34.35,33.48 33.85,34.48 34.1,34.58 C35.3127687,35.3720431 36.4811897,36.2299979 37.6,37.15 C37.6,37.31 37.6,38.57 37.6,38.57 C36.4191813,37.446469 35.1665374,36.4009288 33.85,35.44 C33.53,35.44 33.12,36.09 33.28,36.21 C33.44,36.33 37.52,39.71 37.6,39.88 C37.6370938,40.1888904 37.6370938,40.5011096 37.6,40.81 C37.6,40.81 32.88,37.11 32.75,37.15 C32.62,37.19 32.22,37.8 32.35,37.96 C32.48,38.12 37.4,41.63 37.4,41.63 L34.71,41.5 C34.71,41.5 31.37,38.82 31.13,38.82 C30.89,38.82 30.31,39.14 30.51,39.35 C30.71,39.56 33.16,41.46 33.16,41.46 L31.16,41.55 C30.4626046,40.8448414 29.7282362,40.1772338 28.96,39.55 C28.75,39.55 28.22,39.96 28.31,40.08 C28.4,40.2 30.14,41.59 30.02,41.63 C29.9,41.67 14.91,42.73 10.84,43.09 C6.77,43.45 5.3,43.46 5.09,43.09 C4.88,42.72 4,28.72 3.21,19.43 C2.42,10.14 2,5 2.15,4.69 C2.15,4.55 13.31,3.26 19.38,2.98 C25.45,2.7 36.85,2.33 37.38,2.78 C37.91,3.23 37.5,33 37.5,33 C36.8851122,32.469141 36.214535,32.0064428 35.5,31.62 C35.26,31.62 35.01,32.68 35.01,32.68 C35.8776021,33.1598769 36.7097298,33.7012612 37.5,34.3 Z M17.08,47 C17.0745752,47.228195 17.0947004,47.4562806 17.14,47.68 C18.1407109,47.7075244 19.1421782,47.6808186 20.14,47.6 C20.1745682,47.3847121 20.1745682,47.1652879 20.14,46.95 C19.1205712,46.8746338 18.0964223,46.8913682 17.08,47 Z M24.52,46 C24.74,46 24.66,45.35 24.6,45.21 C24.54,45.07 23.95,45.21 23.73,45.16 C23.51,45.11 23.03,44.83 22.73,44.78 C22.3527795,44.7724716 21.9791739,44.8547334 21.64,45.02 C21.1122837,45.1239882 20.5773938,45.1875064 20.04,45.21 C19.82,45.21 19.88,45.94 19.88,45.94 C19.88,45.94 21.16,45.94 21.54,45.94 C21.92,45.94 22.19,45.56 22.54,45.56 C22.89,45.56 23,45.83 23.14,45.94 C23.5946523,46.0268506 24.0595254,46.0470625 24.52,46 L24.52,46 Z M23.35,46.73 C23.22,46.81 23.27,47.38 23.44,47.46 C23.61,47.54 30.9,47.25 31.01,47.17 C31.12,47.09 31.06,46.65 30.93,46.54 C30.8,46.43 23.57,46.6 23.35,46.73 L23.35,46.73 Z M27.07,44.53 C26.9676043,44.7652744 27.0021391,45.0377158 27.16,45.24 C28.9263943,45.2567355 30.6923778,45.1766153 32.45,45 C32.5294328,44.7802924 32.5294328,44.5397076 32.45,44.32 C32.39,44.18 27.07,44.53 27.07,44.53 L27.07,44.53 Z M3.62,6.14 C3.64627803,7.51106341 3.74642324,8.87971455 3.92,10.24 C4.05,10.24 4.92,10.3 4.92,10.16 C4.92,10.02 4.75,7.26 4.75,7.26 L6.46,7.09 C6.50384487,6.7212989 6.50384487,6.3487011 6.46,5.98 C5.5109854,5.87643278 4.55137674,5.93049524 3.62,6.14 L3.62,6.14 Z M25.55,12.8 C24.78,8.88 22.33,7.63 20.83,7.61 C18.43,7.61 16.96,10.52 16.07,13.95 C10.29,10.95 7.85,11.85 7.12,13.09 C5.53,15.79 7.73,18.5 12.28,22.5 C7.98,26.5 5.75,30.05 7.17,32.26 C8.32,34.04 11.11,33.61 14.69,31.99 C14.7665781,33.1292332 15.1313191,34.2303384 15.75,35.19 C17.68,37.58 18.87,38.59 21.37,34.51 C22.1204253,33.2258076 22.7305987,31.8646514 23.19,30.45 C27.96,32.58 31.59,32.17 32.19,31.15 C32.79,30.13 33.36,27.55 28.66,22.95 C33.1,19.09 35.94,14.95 33.66,12.44 C31.75,10.38 29,11 25.55,12.8 Z M24.9,16.54 C24.9,17.45 24.84,18.48 24.74,19.54 C24.16,19.1 23.53,18.63 22.87,18.16 L21,16.91 C22.23,16.03 23.5,15.19 24.75,14.46 C24.8485176,15.1489791 24.8986403,15.8440143 24.9,16.54 L24.9,16.54 Z M25.32,21.37 C25.9066667,21.87 26.4466667,22.34 26.94,22.78 C26.25,23.36 25.53,23.94 24.78,24.5 C25,23.46 25.17,22.41 25.32,21.37 L25.32,21.37 Z M24.61,20.78 C24.44,22.2 24.2,23.69 23.9,25.15 C23.58,25.39 23.25,25.62 22.9,25.85 C22.09,26.42 21.28,26.96 20.49,27.47 C19.49,26.78 18.33,25.97 17.14,25.01 L15.5,23.66 C15.57,22.66 15.66,21.73 15.75,20.89 C16.55,20.22 17.36,19.58 18.15,18.98 L20.15,17.5 C21.21,18.2 22.32,18.98 23.46,19.88 C23.89,20.19 24.25,20.49 24.61,20.78 L24.61,20.78 Z M21.05,8.53 C22.21,8.53 23.85,10.27 24.56,13.36 C23.16,14.2 21.67,15.21 20.11,16.36 C18.96,15.62 17.9,14.98 16.93,14.45 C17.78,11.29 19.12,8.5 21.05,8.53 Z M16.66,15.43 C17.49,15.86 18.37,16.36 19.28,16.92 L17.54,18.2 C16.99,18.6 16.46,19.01 15.94,19.41 C16.1,18.22 16.33,16.82 16.66,15.43 L16.66,15.43 Z M14.57,30.86 C11.52,32.29 9.16,32.73 8.18,31.53 C6.97,30.03 9.61,26.53 13.12,23.24 L14.61,24.51 C14.4523587,26.6232974 14.4389943,28.7448844 14.57,30.86 L14.57,30.86 Z M14.72,23 L14,22.4 L14.81,21.68 L14.72,23 Z M15,20.16 C14.37,20.67 13.77,21.16 13.19,21.68 C7.99,17.09 7.09,15.06 8.07,13.61 C8.62,12.8 11.55,12.98 15.81,15.01 C15.4863521,16.4828656 15.2393533,17.971534 15.07,19.47 C15.05,19.69 15,19.93 15,20.16 Z M15.41,25.16 L17,26.48 C17.79,27.14 18.57,27.72 19.34,28.25 C17.96,29.1 16.64,29.86 15.41,30.47 C15.3158761,28.7112584 15.3158761,26.9487416 15.41,25.19 L15.41,25.16 Z M21.05,33.89 C18.94,37.31 17.94,36.47 16.32,34.46 C15.7940347,33.5956469 15.4979792,32.6110902 15.46,31.6 C16.98,30.86 18.62,29.94 20.33,28.89 C21.0698932,29.3542847 21.8343417,29.7782365 22.62,30.16 C22.2412403,31.4689189 21.7145067,32.7303957 21.05,33.92 L21.05,33.89 Z M23,29 C22.55,28.76 22.07,28.48 21.58,28.18 L22.82,27.39 L23.54,26.91 C23.36,27.59 23.18,28.29 23,29 Z M31.51,30.35 C31.06,31.17 28.33,31.69 23.59,29.3 C23.88,28.35 24.15,27.35 24.39,26.3 C25.6,25.46 26.77,24.57 27.87,23.67 C31.83,27.5 32,29.42 31.5,30.31 L31.51,30.35 Z M27.76,22.12 C27.09,21.52 26.34,20.88 25.49,20.21 C25.6881936,18.6375132 25.7950395,17.054857 25.81,15.47 C25.81,14.92 25.81,14.47 25.73,13.95 C28.61,12.38 31.2,11.61 32.57,12.95 C34.45,14.69 31.93,18.39 27.75,22.08 L27.76,22.12 Z M18.29,23.97 C18.94,25.46 22.47,25.59 22.66,23.1 C22.8115768,22.2122638 22.4534122,21.3143851 21.7324395,20.7747097 C21.0114669,20.2350342 20.0490459,20.1444043 19.24,20.54 C18,21.13 17.63,22.43 18.28,23.93 L18.29,23.97 Z M19.77,21.59 C20.1811525,21.3883145 20.6706243,21.433871 21.0374943,21.7079692 C21.4043642,21.9820675 21.5868331,22.4385356 21.51,22.89 C21.41,24.16 19.61,24.09 19.28,23.33 C19.0856284,23.0357673 19.026892,22.6722611 19.1187056,22.3317858 C19.2105191,21.9913105 19.4440507,21.7066181 19.76,21.55 L19.77,21.59 Z" id="Shape"></path>
            </g>
        </g>
    </g>
</svg>