<?xml version="1.0" encoding="UTF-8"?>
<svg width="150px" height="40px" viewBox="0 0 150 40" version="1.1" xmlns="http://www.w3.org/2000/svg" xmlns:xlink="http://www.w3.org/1999/xlink">
    <!-- Generator: Sketch 64 (93537) - https://sketch.com -->
    <title>logo</title>
    <desc>Created with Sketch.</desc>
    <g id="landingpage" stroke="none" stroke-width="1" fill="none" fill-rule="evenodd">
        <g id="landingpage-bulletin-v2-copy" transform="translate(-151.000000, -40.000000)">
            <g id="top-section" transform="translate(150.000000, 18.000000)">
                <g id="logo" transform="translate(1.000000, 22.000000)">
                    <path d="M39.06568,17.4702183 L38.3557223,17.4702183 C38.09068,17.4702183 37.8764851,17.2560234 37.8764851,16.990981 L37.8764851,14.7187353 C37.8764851,14.4543285 38.09068,14.239498 38.3557223,14.239498 L42.2366545,14.239498 C45.1819935,14.239498 47.5692817,16.6267861 47.5692817,19.5721251 L47.5692817,24.8729725 C47.5692817,25.1373793 47.7834766,25.3522098 48.048519,25.3522098 L48.8646206,25.3522098 C49.129663,25.3522098 49.3438579,25.5670403 49.3438579,25.8314471 L49.3438579,28.1036929 C49.3438579,28.3680997 49.129663,28.5829302 48.8646206,28.5829302 L41.2915274,28.5829302 C41.0773325,28.5829302 40.8891969,28.4411929 40.8307223,28.2352607 C40.5173749,27.1312353 39.1724596,26.7352607 38.2959766,27.4750912 C37.1194935,28.469159 35.5915274,28.9382268 33.7934342,28.9382268 C30.1362308,28.9382268 27.7222478,26.5947946 27.7222478,22.1570827 L27.7222478,17.9500912 C27.7222478,17.6850488 27.5074173,17.4702183 27.2423749,17.4702183 L26.4618664,17.4702183 C26.196824,17.4702183 25.9826291,17.2560234 25.9826291,16.990981 L25.9826291,14.7187353 C25.9826291,14.4543285 26.196824,14.239498 26.4618664,14.239498 L30.4139851,14.239498 C33.3586884,14.239498 35.7459766,16.6267861 35.7459766,19.5721251 L35.7459766,22.1214895 C35.7459766,23.6125912 36.420341,24.251998 37.3794512,24.251998 C38.4440698,24.251998 39.2252139,23.7549641 39.5449173,21.6244556 L39.5449173,17.9500912 C39.5449173,17.6850488 39.3307223,17.4702183 39.06568,17.4702183" id="Fill-2" fill="#314760"></path>
                    <path d="M52.2734978,25.3524641 C52.5379045,25.3524641 52.7527351,25.1376336 52.7527351,24.8732268 L52.7527351,8.33000644 C52.7527351,7.61687085 52.0218029,7.13826915 51.368413,7.42301492 C50.7150232,7.70776068 49.9834554,7.22852339 49.9834554,6.51602339 C49.9834554,4.95754882 51.2463791,3.69462509 52.8048537,3.69462509 L55.4800656,3.69462509 C58.424769,3.69462509 60.8126927,6.08254882 60.8126927,9.02661661 L60.8126927,24.8732268 C60.8126927,25.1376336 61.0268876,25.3524641 61.29193,25.3524641 L61.9662944,25.3524641 C62.2307012,25.3524641 62.4455317,25.5672946 62.4455317,25.8317014 L62.4455317,28.1039471 C62.4455317,28.3683539 62.2307012,28.5831844 61.9662944,28.5831844 L51.5635401,28.5831844 C51.2984978,28.5831844 51.0843029,28.3683539 51.0843029,28.1039471 L51.0843029,25.8317014 C51.0843029,25.5672946 51.2984978,25.3524641 51.5635401,25.3524641 L52.2734978,25.3524641 Z" id="Fill-4" fill="#314760"></path>
                    <path d="M65.0907435,25.3524641 L65.8007012,25.3524641 C66.0651079,25.3524641 66.2799384,25.1376336 66.2799384,24.8732268 L66.2799384,8.33000644 C66.2799384,7.61687085 65.5490062,7.13826915 64.8956164,7.42301492 C64.2422266,7.70776068 63.5106588,7.22852339 63.5106588,6.51602339 C63.5106588,4.95754882 64.7735825,3.69462509 66.3320571,3.69462509 L69.007269,3.69462509 C71.9519723,3.69462509 74.3398961,6.08254882 74.3398961,9.02661661 L74.3398961,24.8732268 C74.3398961,25.1376336 74.554091,25.3524641 74.8191334,25.3524641 L75.4934978,25.3524641 C75.7579045,25.3524641 75.9727351,25.5672946 75.9727351,25.8317014 L75.9727351,28.1039471 C75.9727351,28.3683539 75.7579045,28.5831844 75.4934978,28.5831844 L65.0907435,28.5831844 C64.8257012,28.5831844 64.6115062,28.3683539 64.6115062,28.1039471 L64.6115062,25.8317014 C64.6115062,25.5672946 64.8257012,25.3524641 65.0907435,25.3524641" id="Fill-6" fill="#314760"></path>
                    <path d="M89.3549596,18.9617649 C88.9640698,18.2867649 88.2897054,17.8965107 87.4024173,17.8965107 C85.8401291,17.8965107 84.8816545,19.0323158 84.8816545,20.9499005 L84.8816545,20.963248 C84.8829257,21.5435446 85.5579257,21.8651547 86.0187308,21.5130361 L89.3549596,18.9617649 Z M96.0477562,14.5869768 L97.3036884,16.8941802 C97.4257223,17.1185446 97.3513579,17.39757 97.1346206,17.5316802 L86.6568664,24.0032903 C87.1894935,24.3229937 87.7926715,24.5003242 88.5382223,24.5003242 C90.3464851,24.5003242 91.9151291,23.5660022 93.1850444,22.0907903 C93.6515698,21.5492649 94.4772054,21.505409 95.0117393,21.9795615 L96.4869512,23.2876124 C97.0233918,23.7636717 97.0710613,24.5874005 96.5892817,25.1187564 C94.5674596,27.3496886 91.631019,28.9736293 87.2600444,28.9736293 C81.0471206,28.9736293 77.1058071,26.0982056 77.1058071,21.4469344 C77.1058071,16.9729937 80.7986037,13.8846463 86.3727562,13.8846463 C89.037163,13.8846463 91.0761461,14.8215107 92.5202139,16.0806208 C92.6899173,16.2280785 92.937163,16.2388836 93.1176715,16.105409 C93.652841,15.7094344 94.7301715,14.8946039 95.3377986,14.4337988 C95.5716969,14.2571039 95.9072901,14.3295615 96.0477562,14.5869768 L96.0477562,14.5869768 Z" id="Fill-8" fill="#314760"></path>
                    <path d="M111.225659,14.7186717 L111.225659,16.9909175 C111.225659,17.2559598 111.010828,17.4701547 110.746421,17.4701547 L108.722693,17.4701547 C108.458286,17.4701547 108.243455,17.6849853 108.243455,17.9500276 L108.243455,23.3290531 C108.243455,24.7133751 108.882227,25.2815954 109.876294,25.2815954 L109.894727,25.2815954 C110.625659,25.2777819 111.225659,25.8555361 111.225659,26.5871039 L111.225659,26.9818073 C111.225659,27.5055361 110.918667,27.9841378 110.437523,28.1919768 C109.691337,28.5148581 108.406167,28.90257 106.538794,28.90257 C102.456379,28.90257 100.43265,27.0568073 100.43265,22.6184598 L100.43265,17.9500276 C100.43265,17.6849853 100.21782,17.4701547 99.9527774,17.4701547 L98.497269,17.4701547 C98.2328622,17.4701547 98.0180317,17.2559598 98.0180317,16.9909175 L98.0180317,14.7186717 C98.0180317,14.4542649 98.2328622,14.2394344 98.497269,14.2394344 L99.9527774,14.2394344 C100.21782,14.2394344 100.43265,14.0246039 100.43265,13.7601971 L100.43265,10.6394344 C100.43265,10.0515107 100.853413,9.54812085 101.431803,9.44388356 L106.884557,8.46125644 C107.629472,8.32714627 108.314006,8.89981576 108.314006,9.65680729 L108.314006,13.7601971 C108.314006,14.0246039 108.528837,14.2394344 108.793879,14.2394344 L110.746421,14.2394344 C111.010828,14.2394344 111.225659,14.4542649 111.225659,14.7186717" id="Fill-10" fill="#314760"></path>
                    <path d="M118.575023,4.40458271 C121.131379,4.40458271 122.942184,6.18043017 122.942184,8.70119288 C122.942184,11.2219556 121.131379,12.9971675 118.575023,12.9971675 C115.983074,12.9971675 114.172269,11.2219556 114.172269,8.70119288 C114.172269,6.18043017 115.983074,4.40458271 118.575023,4.40458271 M124.681803,25.8317014 L124.681803,28.1039471 C124.681803,28.3683539 124.466972,28.5831844 124.202566,28.5831844 L113.586888,28.5831844 C113.321845,28.5831844 113.107015,28.3683539 113.107015,28.1039471 L113.107015,25.8317014 C113.107015,25.5672946 113.321845,25.3524641 113.586888,25.3524641 L114.403625,25.3524641 C114.668032,25.3524641 114.882862,25.1376336 114.882862,24.8732268 L114.882862,17.9503454 C114.882862,17.6853031 114.668032,17.4704725 114.403625,17.4704725 L113.586888,17.4704725 C113.321845,17.4704725 113.107015,17.2562776 113.107015,16.9912353 L113.107015,14.7189895 C113.107015,14.4545827 113.321845,14.2397522 113.586888,14.2397522 L117.539006,14.2397522 C120.48371,14.2397522 122.870998,16.6264047 122.870998,19.5717437 L122.870998,24.8732268 C122.870998,25.1376336 123.085828,25.3524641 123.350235,25.3524641 L124.202566,25.3524641 C124.466972,25.3524641 124.681803,25.5672946 124.681803,25.8317014" id="Fill-12" fill="#314760"></path>
                    <path d="M142.007756,13.8844556 C145.700553,13.8844556 148.078943,16.2278878 148.078943,20.6655997 L148.078943,24.8732268 C148.078943,25.1376336 148.293773,25.3524641 148.55818,25.3524641 L149.374917,25.3524641 C149.63996,25.3524641 149.854155,25.5672946 149.854155,25.8317014 L149.854155,28.1039471 C149.854155,28.3683539 149.63996,28.5831844 149.374917,28.5831844 L139.50479,28.5831844 C139.240383,28.5831844 139.025553,28.3683539 139.025553,28.1039471 L139.025553,25.8317014 C139.025553,25.5672946 139.240383,25.3524641 139.50479,25.3524641 L139.575977,25.3524641 C139.840383,25.3524641 140.055214,25.1376336 140.055214,24.8732268 L140.055214,20.7018285 C140.055214,19.2100912 139.380214,18.57132 138.421739,18.57132 C137.357121,18.57132 136.610934,19.0677183 136.291866,21.1982268 L136.291866,24.8732268 C136.291866,25.1376336 136.506061,25.3524641 136.771104,25.3524641 C137.03551,25.3524641 137.250341,25.5672946 137.250341,25.8317014 L137.250341,28.1039471 C137.250341,28.3683539 137.03551,28.5831844 136.771104,28.5831844 L126.93657,28.5831844 C126.671527,28.5831844 126.456697,28.3683539 126.456697,28.1039471 L126.456697,25.8317014 C126.456697,25.5672946 126.671527,25.3524641 126.93657,25.3524641 L127.788265,25.3524641 C128.053307,25.3524641 128.267502,25.1376336 128.267502,24.8732268 L128.267502,17.9497098 C128.267502,17.6846675 128.053307,17.4704725 127.788265,17.4704725 L126.93657,17.4704725 C126.671527,17.4704725 126.456697,17.2562776 126.456697,16.9912353 L126.456697,14.7183539 C126.456697,14.4539471 126.671527,14.2397522 126.93657,14.2397522 L130.469197,14.2397522 C132.878731,14.2397522 134.9889,15.8554302 135.616866,18.1810658 C136.717714,15.23382 138.98996,13.8844556 142.007756,13.8844556" id="Fill-14" fill="#314760"></path>
                    <path d="M19.1357643,3.69462509 C17.4893064,1.24715691 14.6762762,-0.000164310289 7.7639353,-0.000164310289 C-1.01809955,-0.000164310289 0.177989291,0.770260682 0.177989291,9.85987933 L0.177989291,21.0545626 C0.177989291,22.8544624 0.889910855,25.9615385 4.32692308,25.9615385 C7.7639353,25.9615385 8.40002319,23.2282129 8.40002319,21.0545626 C8.40002319,18.8809122 8.40002319,7.84161797 8.40002319,6.14209326 C8.40002319,4.44256855 8.40002319,4.44256855 10.1409332,4.44526068 C14.8964862,4.45261463 15.4667658,9.90243063 14.6762762,12.5660063 C14.4289537,13.3993661 13.8025264,14.3125061 13.4453622,14.239498 C13.4421842,14.2388624 12.6382566,14.239498 12.6344431,14.239498 C11.1528753,14.23632 10.7726927,14.239498 10.7726927,15.3425064 L10.7904893,18.8860449 C10.8174953,20.8733181 10.8174953,22.0726621 13.3357382,22.0726621 C17.5122413,22.0726621 20.532337,29.3421064 15.0667605,34.80882 C12.4044279,37.4717064 7.71231133,39.1060658 4.13074353,36.9177183 C8.0743712,36.9177183 9.43538441,34.6663578 9.43538441,32.3878454 C9.43538441,30.109333 7.55468421,27.8687978 4.80129438,27.8687978 C1.75870963,27.8687978 0.334980817,30.3425064 0.334980817,32.5028878 C0.334980817,35.5461081 3.60905241,39.6268315 11.5989639,39.7353031 C21.9305668,39.8755656 25.7854045,32.5028878 25.7854045,25.5488624 C25.7854045,19.8939895 21.7131588,16.4376336 17.9993876,15.4734386 C21.9305668,11.2948733 20.7822221,6.14209326 19.1357643,3.69462509 Z" id="Combined-Shape" fill="#E75F44"></path>
                </g>
            </g>
        </g>
    </g>
</svg>