<?xml version="1.0" encoding="UTF-8"?>
<svg width="128px" height="113px" viewBox="0 0 128 113" version="1.1" xmlns="http://www.w3.org/2000/svg" xmlns:xlink="http://www.w3.org/1999/xlink">
    <!-- Generator: Sketch 64 (93537) - https://sketch.com -->
    <title>icon</title>
    <desc>Created with Sketch.</desc>
    <g id="plugin" stroke="none" stroke-width="1" fill="none" fill-rule="evenodd">
        <g id="quickstart-desktop-" transform="translate(-736.000000, -56.000000)">
            <g id="Welcome" transform="translate(314.000000, 56.000000)">
                <g id="icon" transform="translate(422.000000, 0.000000)">
                    <g id="Background_13_" transform="translate(52.000000, 20.000000)" fill="#F77355">
                        <rect id="Rectangle" transform="translate(25.500000, 25.500000) rotate(-315.000000) translate(-25.500000, -25.500000) " x="8" y="8" width="35" height="35"></rect>
                    </g>
                    <g id="Group" fill="#324760" fill-rule="nonzero">
                        <g transform="translate(93.000000, 20.000000)">
                            <rect id="Rectangle" transform="translate(15.027579, 8.003190) rotate(-26.124303) translate(-15.027579, -8.003190) " x="-1.09018753" y="7.50321302" width="32.2355321" height="1"></rect>
                            <polygon id="Path" points="32.617 40.037 1.243 34.941 1.447 33.963 32.821 39.059"></polygon>
                            <polygon id="Path" points="35 20.402 3.17 24.592 3.064 23.598 34.895 19.408"></polygon>
                        </g>
                        <g transform="translate(5.000000, 53.000000)" id="Path">
                            <path d="M3.391,12.433 C3.457,12.433 3.523,12.427 3.587,12.413 L13.526,10.426 C14.066,10.318 14.415,9.795 14.306,9.256 C14.197,8.716 13.652,8.365 13.138,8.477 L3.199,10.465 C2.659,10.572 2.31,11.096 2.419,11.634 C2.513,12.106 2.927,12.433 3.391,12.433 Z"></path>
                            <path d="M2.396,8.457 C2.462,8.457 2.528,8.451 2.592,8.437 L12.531,6.449 C13.071,6.342 13.42,5.818 13.311,5.28 C13.203,4.74 12.653,4.39 12.143,4.5 L2.204,6.488 C1.664,6.595 1.315,7.119 1.423,7.658 C1.519,8.131 1.933,8.457 2.396,8.457 Z"></path>
                            <path d="M1.403,4.481 C1.469,4.481 1.535,4.475 1.599,4.461 L11.538,2.474 C12.078,2.366 12.427,1.843 12.318,1.304 C12.209,0.764 11.664,0.415 11.149,0.525 L1.21,2.513 C0.67,2.621 0.321,3.144 0.43,3.683 C0.525,4.155 0.938,4.481 1.403,4.481 Z"></path>
                        </g>
                        <path d="M106.686,43.04 C104.622,19.423 90.476,0.922 74.483,0.922 C73.879,0.922 73.267,0.949 72.665,1.002 C64.542,1.712 57.346,7.077 52.402,16.109 C49.804,20.854 48,26.322 47.03,32.188 C46.001,33.246 44.943,34.085 43.959,34.431 L11.426,42.168 C4.522,43.809 -0.092,50.829 1.141,57.818 L2.521,65.646 C3.541,71.427 8.282,75.725 14.027,76.268 C18.461,98.774 29.762,112.317 29.877,112.452 L30.11,112.727 L35.408,110.592 L47.227,100.947 L46.31,100.683 C46.21,100.655 37.684,97.998 31.524,82.09 L33.262,80.973 L30.441,73.847 L49.737,70.446 C49.933,70.422 50.18,70.406 50.425,70.406 C50.425,70.406 50.425,70.406 50.426,70.406 C51.226,70.406 51.996,70.579 52.724,70.841 C58.756,82.691 68.319,90.43 78.659,90.43 C79.263,90.43 79.873,90.404 80.474,90.351 C97.084,88.898 108.84,67.675 106.686,43.04 Z M15.057,76.32 C15.125,76.321 15.191,76.329 15.26,76.329 C16.007,76.329 16.76,76.263 17.499,76.132 L25.119,74.788 C30.014,94.39 38.046,100.783 40.347,102.254 L30.316,111.401 C28.445,109.022 19.046,96.282 15.057,76.32 Z M34.964,109.693 L32.647,110.628 L41.636,102.43 L45.014,101.469 L34.964,109.693 Z M43.982,100.702 L41.105,101.54 C39.689,100.657 33.516,96.184 28.635,82.88 L30.569,82.426 C35.115,94.26 40.937,98.958 43.982,100.702 Z M30.866,81.328 L28.366,81.916 L26.15,74.605 L27.124,74.433 L29.366,81 L31.815,80.719 L30.866,81.328 Z M31.623,79.733 L30.052,79.914 L28.121,74.259 L29.223,74.065 L29.374,74.053 L31.623,79.733 Z M17.324,75.147 C16.631,75.269 15.941,75.329 15.259,75.329 C9.588,75.329 4.524,71.24 3.506,65.473 L2.126,57.645 C0.986,51.185 5.277,44.658 11.658,43.141 L26.626,39.581 C24.744,41.625 22.895,43.983 25.298,57.666 C26.944,67.04 32.143,70.648 35.242,71.988 L17.324,75.147 Z M50.43,69.407 C50.145,69.407 49.858,69.425 49.567,69.463 L49.528,69.47 L48.12,69.718 L37.252,71.634 C33.533,70.667 27.958,67.02 26.284,57.493 C23.533,41.834 26.449,41.657 28.293,39.185 L37.679,36.953 L43.925,35.468 L43.925,35.467 L44.239,35.393 C45.084,35.108 45.946,34.532 46.786,33.798 C46.145,38.458 46.021,43.346 46.455,48.311 C47.141,56.149 49.163,63.416 52.136,69.638 C51.583,69.505 51.018,69.407 50.43,69.407 Z M80.392,89.355 C79.814,89.406 79.238,89.43 78.663,89.43 C63.265,89.43 49.486,71.486 47.45,48.223 C45.34,24.093 56.667,3.404 72.751,1.997 C73.331,1.946 73.906,1.921 74.482,1.921 C89.878,1.921 103.656,19.868 105.689,43.126 C103.752,20.982 90.636,3.896 75.978,3.896 C75.429,3.896 74.881,3.919 74.329,3.968 C59.016,5.308 48.233,25.005 50.242,47.978 C52.18,70.126 65.298,87.211 79.959,87.211 C80.505,87.211 81.054,87.187 81.605,87.139 C96.439,85.842 107.021,67.316 105.841,45.271 C107.12,68.472 95.996,87.99 80.392,89.355 Z M73.679,39.174 C72.611,41.125 72.148,43.627 72.375,46.218 C72.743,50.433 74.887,53.906 77.588,55.066 L53.978,61.371 C52.604,57.195 51.656,52.659 51.239,47.892 C51.052,45.756 50.98,43.651 51.011,41.585 L75.014,37.375 C74.516,37.871 74.064,38.469 73.679,39.174 Z M78.321,36.793 C78.429,36.783 78.539,36.778 78.647,36.778 C81.698,36.778 84.41,40.446 84.82,45.128 C85.245,50 83.024,54.189 79.868,54.465 C79.76,54.475 79.651,54.48 79.543,54.48 C79.542,54.48 79.542,54.48 79.542,54.48 C76.49,54.479 73.78,50.812 73.371,46.13 C73.161,43.734 73.582,41.434 74.556,39.653 C75.494,37.939 76.831,36.924 78.321,36.793 Z M80.034,55.448 C83.696,55.065 86.287,50.424 85.816,45.04 C85.365,39.89 82.256,35.869 78.734,35.791 L78.727,35.708 L78.09,35.819 C77.889,35.843 77.691,35.875 77.495,35.923 L51.04,40.564 C51.655,21.454 61.317,6.111 74.415,4.964 C74.933,4.919 75.459,4.896 75.978,4.896 C90.201,4.896 102.814,21.727 104.693,43.213 C105.648,54.13 103.72,64.626 99.265,72.766 C94.882,80.775 88.579,85.526 81.517,86.143 C81,86.188 80.476,86.211 79.958,86.211 C69.13,86.211 59.241,76.452 54.303,62.316 L80.034,55.448 Z" id="Shape"></path>
                    </g>
                </g>
            </g>
        </g>
    </g>
</svg>