<?xml version="1.0" encoding="UTF-8"?>
<svg width="54px" height="39px" viewBox="0 0 54 39" version="1.1" xmlns="http://www.w3.org/2000/svg" xmlns:xlink="http://www.w3.org/1999/xlink">
    <!-- Generator: Sketch 64 (93537) - https://sketch.com -->
    <title>"</title>
    <desc>Created with Sketch.</desc>
    <g id="landingpage" stroke="none" stroke-width="1" fill="none" fill-rule="evenodd">
        <g id="landingpage-bulletin-v2-copy" transform="translate(-1025.000000, -3441.000000)" fill-rule="nonzero">
            <g id="testimonials" transform="translate(185.000000, 3034.000000)">
                <g id="quote" transform="translate(675.000000, 139.000000)">
                    <g id="&quot;" transform="translate(165.000000, 269.000000)">
                        <path d="M11.9722495,36.9167485 C18.034148,36.9167485 22.8836667,33.2796094 22.8836667,26.6115211 C22.8836667,22.2166447 20.3073599,17.6702208 14.7001038,17.6702208 C13.6392716,17.6702208 11.2145122,17.8217683 9.39594264,19.7918853 C9.09284771,18.8826005 8.78975279,17.8217683 8.78975279,16.6093886 C8.78975279,9.78975279 14.8516513,3.87940178 22.8836667,2.51547462 L22.8836667,1 C8.78975279,1 -8.8817842e-14,10.3959426 -8.8817842e-14,21.9135497 C-8.8817842e-14,30.0971127 3.63713909,36.9167485 11.9722495,36.9167485 Z M38.4930553,36.9167485 C44.5549538,36.9167485 49.4044726,33.2796094 49.4044726,26.6115211 C49.4044726,22.2166447 46.8281657,17.6702208 41.2209096,17.6702208 C40.1600774,17.6702208 37.735318,17.8217683 35.9167485,19.7918853 C35.6136535,18.8826005 35.3105586,17.8217683 35.3105586,16.6093886 C35.3105586,9.78975279 41.3724571,3.87940178 49.4044726,2.51547462 L49.4044726,1 C35.3105586,1 26.5208058,10.3959426 26.5208058,21.9135497 C26.5208058,30.0971127 30.1579449,36.9167485 38.4930553,36.9167485 Z" id="“" fill="#F77355"></path>
                        <path d="M15.0632515,36.1897546 C21.171227,36.1897546 26.0576074,32.5249693 26.0576074,25.8061963 C26.0576074,21.3779141 23.4617178,16.7969325 17.8118405,16.7969325 C16.7429448,16.7969325 14.2997546,16.9496319 12.467362,18.9347239 C12.1619632,18.0185276 11.8565644,16.9496319 11.8565644,15.7280368 C11.8565644,8.85656442 17.9645399,2.90128834 26.0576074,1.52699387 L26.0576074,5.32907052e-14 C11.8565644,5.32907052e-14 3,9.46736196 3,21.0725153 C3,29.3182822 6.66478528,36.1897546 15.0632515,36.1897546 Z M41.7856442,36.1897546 C47.8936196,36.1897546 52.78,32.5249693 52.78,25.8061963 C52.78,21.3779141 50.1841104,16.7969325 44.5342331,16.7969325 C43.4653374,16.7969325 41.0221472,16.9496319 39.1897546,18.9347239 C38.8843558,18.0185276 38.5789571,16.9496319 38.5789571,15.7280368 C38.5789571,8.85656442 44.6869325,2.90128834 52.78,1.52699387 L52.78,5.32907052e-14 C38.5789571,5.32907052e-14 29.7223926,9.46736196 29.7223926,21.0725153 C29.7223926,29.3182822 33.3871779,36.1897546 41.7856442,36.1897546 Z" id="“" stroke="#324760" stroke-width="2"></path>
                    </g>
                </g>
            </g>
        </g>
    </g>
</svg>