<svg width="28" height="22" viewBox="0 0 28 22" fill="none" xmlns="http://www.w3.org/2000/svg">
<path d="M3.33341 0.333252C2.62617 0.333252 1.94789 0.614203 1.4478 1.1143C0.947699 1.6144 0.666748 2.29267 0.666748 2.99992V8.33325C1.37399 8.33325 2.05227 8.6142 2.55237 9.1143C3.05246 9.6144 3.33341 10.2927 3.33341 10.9999C3.33341 11.7072 3.05246 12.3854 2.55237 12.8855C2.05227 13.3856 1.37399 13.6666 0.666748 13.6666V18.9999C0.666748 19.7072 0.947699 20.3854 1.4478 20.8855C1.94789 21.3856 2.62617 21.6666 3.33341 21.6666H24.6667C25.374 21.6666 26.0523 21.3856 26.5524 20.8855C27.0525 20.3854 27.3334 19.7072 27.3334 18.9999V13.6666C26.6262 13.6666 25.9479 13.3856 25.4478 12.8855C24.9477 12.3854 24.6667 11.7072 24.6667 10.9999C24.6667 10.2927 24.9477 9.6144 25.4478 9.1143C25.9479 8.6142 26.6262 8.33325 27.3334 8.33325V2.99992C27.3334 2.29267 27.0525 1.6144 26.5524 1.1143C26.0523 0.614203 25.374 0.333252 24.6667 0.333252H3.33341ZM18.6667 4.33325L20.6667 6.33325L9.33341 17.6666L7.33341 15.6666L18.6667 4.33325ZM9.74675 4.38659C11.0534 4.38659 12.1067 5.43992 12.1067 6.74659C12.1067 7.3725 11.8581 7.97277 11.4155 8.41536C10.9729 8.85794 10.3727 9.10659 9.74675 9.10659C8.44008 9.10659 7.38675 8.05325 7.38675 6.74659C7.38675 6.12068 7.63539 5.5204 8.07798 5.07781C8.52056 4.63523 9.12084 4.38659 9.74675 4.38659ZM18.2534 12.8933C19.5601 12.8933 20.6134 13.9466 20.6134 15.2533C20.6134 15.8792 20.3648 16.4794 19.9222 16.922C19.4796 17.3646 18.8793 17.6133 18.2534 17.6133C16.9467 17.6133 15.8934 16.5599 15.8934 15.2533C15.8934 14.6273 16.1421 14.0271 16.5846 13.5845C17.0272 13.1419 17.6275 12.8933 18.2534 12.8933Z" fill="#F77355"/>
</svg>
