<?xml version="1.0" encoding="UTF-8"?>
<svg width="47px" height="42px" viewBox="0 0 47 42" version="1.1" xmlns="http://www.w3.org/2000/svg" xmlns:xlink="http://www.w3.org/1999/xlink">
    <title>Group</title>
    <g id="plugin-NEW-designs-oct-2021" stroke="none" stroke-width="1" fill="none" fill-rule="evenodd">
        <g id="Message-block-final" transform="translate(-411.000000, -685.000000)" fill="#324760" fill-rule="nonzero">
            <g id="Content-block" transform="translate(372.000000, 654.000000)">
                <g id="Group" transform="translate(39.000000, 31.000000)">
                    <g transform="translate(34.001154, 7.850244)">
                        <polygon id="Rectangle" transform="translate(5.580518, 3.077753) rotate(-26.124303) translate(-5.580518, -3.077753) " points="-0.389758099 2.8593379 11.548597 2.93038409 11.550794 3.2961675 -0.387561042 3.22512131"></polygon>
                        <polygon id="Path" points="12.1137317 14.7974392 0.460531668 12.933049 0.536303096 12.5752441 12.1895031 14.4396343"></polygon>
                        <polygon id="Path" points="12.998846 7.61390261 1.17627452 9.14682944 1.1369031 8.7831709 12.959846 7.25024407"></polygon>
                    </g>
                    <g transform="translate(1.164028, 20.194131)" id="Path">
                        <path d="M1.19237234,4.58779168 C1.21877234,4.58779168 1.24517234,4.58548399 1.27077234,4.58009937 L5.24637234,3.8158686 C5.46237234,3.77433014 5.60197234,3.5731763 5.55837234,3.3658686 C5.51477234,3.1581763 5.29677234,3.0231763 5.09117234,3.06625322 L1.11557234,3.8308686 C0.89957234,3.87202245 0.75997234,4.07356091 0.80357234,4.28048399 C0.84117234,4.46202245 1.00677234,4.58779168 1.19237234,4.58779168 Z"></path>
                        <path d="M0.79437234,3.05856091 C0.82077234,3.05856091 0.84717234,3.05625322 0.87277234,3.0508686 L4.84837234,2.28625322 C5.06437234,2.24509937 5.20397234,2.04356091 5.16037234,1.83663783 C5.11717234,1.62894553 4.89717234,1.49433014 4.69317234,1.53663783 L0.71757234,2.30125322 C0.50157234,2.34240707 0.36197234,2.54394553 0.40517234,2.75125322 C0.44357234,2.9331763 0.60917234,3.05856091 0.79437234,3.05856091 Z"></path>
                        <path d="M0.39717234,1.52933014 C0.42357234,1.52933014 0.44997234,1.52702245 0.47557234,1.52163783 L4.45117234,0.757407065 C4.66717234,0.715868604 4.80677234,0.514714758 4.76317234,0.307407065 C4.71957234,0.0997147577 4.50157234,-0.0345160115 4.29557234,0.00779168082 L0.31997234,0.772407065 C0.10397234,0.813945527 -0.0356276604,1.01509937 0.00797233956,1.22240707 C0.0459723396,1.40394553 0.21117234,1.52933014 0.39717234,1.52933014 Z"></path>
                    </g>
                    <path d="M38.9063493,15.8217969 C38.1469454,6.9499754 32.9422324,0 27.0579559,0 C26.8357272,0 26.6105551,0.0101426591 26.3890623,0.0300523232 C23.4003812,0.296766692 20.7527695,2.31215062 18.9337322,5.70505791 C17.9778546,7.48753634 17.3141121,9.54161263 16.9572217,11.7451992 C16.5786235,12.1426412 16.1893554,12.4578149 15.827314,12.5877912 L3.8575043,15.4942266 C1.31732767,16.1106748 -0.380293269,18.7477662 0.0733622618,21.3732123 L0.581103245,24.3138321 C0.956390059,26.4854881 2.70073789,28.1000492 4.81448568,28.3040293 C6.44587953,36.7584992 10.6038367,41.8459818 10.6461484,41.8966951 L10.7318757,42 L12.6811596,41.1979786 L17.0297035,37.5747954 L16.6923133,37.4756227 C16.6555205,37.4651044 13.5185643,36.4669916 11.2521262,30.4910872 L11.8915855,30.0714816 L10.85366,27.3945709 L17.9532034,26.1169715 C18.0253174,26.1079558 18.1161957,26.1019454 18.2063381,26.1019454 C18.2063381,26.1019454 18.2063381,26.1019454 18.206706,26.1019454 C18.5010486,26.1019454 18.7843534,26.1669335 19.0522051,26.2653549 C21.2715483,30.7168552 24.7900462,33.6240419 28.5944243,33.6240419 C28.8166529,33.6240419 29.0410892,33.6142749 29.262214,33.5943652 C35.3735022,33.0485399 39.6988667,25.0760342 38.9063493,15.8217969 Z M5.19345177,28.3235633 C5.21847089,28.323939 5.24275416,28.3269442 5.26814121,28.3269442 C5.54298361,28.3269442 5.82003358,28.3021511 6.09193256,28.2529404 L8.89554581,27.7480614 C10.6965546,35.1116319 13.6517543,37.5131881 14.4983572,38.0657752 L10.8076689,41.5018827 C10.1192752,40.6082018 6.66111756,35.8223693 5.19345177,28.3235633 Z M12.5177994,40.8602656 L11.6653097,41.2115022 L14.9726167,38.1318903 L16.2154783,37.7708868 L12.5177994,40.8602656 Z M15.8357764,37.4827602 L14.7772468,37.7975582 C14.2562604,37.4658557 11.9850393,35.7855552 10.1891815,30.7878539 L10.9007548,30.6173069 C12.5733566,35.0627968 14.7154349,36.8276195 15.8357764,37.4827602 Z M11.0100295,30.2048388 L10.0902088,30.4257234 L9.27487984,27.6793167 L9.63324195,27.6147042 L10.4581371,30.0816243 L11.3591934,29.9760655 L11.0100295,30.2048388 Z M11.2885511,29.6056706 L10.7105359,29.673664 L10.0000664,27.5493404 L10.4055233,27.4764635 L10.4610805,27.4719556 L11.2885511,29.6056706 Z M6.02754511,27.8829212 C5.77257084,27.928751 5.51870035,27.9512902 5.26777328,27.9512902 C3.18125218,27.9512902 1.31806353,26.4152408 0.94351257,24.248844 L0.435771587,21.3082241 C0.0163333832,18.881499 1.5951135,16.4296051 3.94286366,15.8597379 L9.45001368,14.5224096 C8.75757272,15.2902464 8.07727339,16.1760386 8.96140497,21.3161129 C9.56701487,24.8374939 11.4798738,26.1928536 12.6200835,26.69623 L6.02754511,27.8829212 Z M18.2081777,25.726667 C18.1033182,25.726667 17.9977228,25.7334287 17.8906556,25.7477036 L17.8763064,25.7503332 L17.3582635,25.8434954 L13.3596193,26.5632485 C11.9912941,26.1999911 9.94009411,24.8299808 9.32418222,21.2511247 C8.31201161,15.3687581 9.38489038,15.3022673 10.0633501,14.3736506 L13.5167246,13.5351907 L15.8148045,12.9773445 L15.8148045,12.9769688 L15.9303339,12.9491704 C16.2412333,12.842109 16.5583875,12.6257323 16.8674472,12.3500022 C16.6316052,14.1005501 16.5859821,15.936747 16.7456629,17.8018693 C16.9980617,20.7462457 17.7420126,23.4761236 18.8358633,25.813443 C18.632399,25.7634811 18.4245195,25.726667 18.2081777,25.726667 Z M29.2320439,33.2202138 C29.0193814,33.2393721 28.8074547,33.2483878 28.595896,33.2483878 C22.9305368,33.2483878 17.8608535,26.5076517 17.1117515,17.7688118 C16.3354229,8.70427977 20.5029462,0.932373329 26.4207042,0.403828094 C26.6341025,0.384669737 26.8456613,0.375278386 27.057588,0.375278386 C32.7222113,0.375278386 37.7915267,7.11714145 38.5395248,15.8541031 C37.8268478,7.53562005 33.0011009,1.11719512 27.6080086,1.11719512 C27.406016,1.11719512 27.2043913,1.12583516 27.0012949,1.14424221 C21.3672097,1.64761862 17.3998394,9.04687626 18.1390072,17.6767765 C18.8520522,25.9967622 23.6785349,32.4148115 29.072731,32.4148115 C29.2736198,32.4148115 29.4756124,32.4057958 29.6783409,32.3877644 C35.1361885,31.9005411 39.0296053,24.9411744 38.5954499,16.659881 C39.0660301,25.3754304 34.9731963,32.707446 29.2320439,33.2202138 Z M26.7621416,14.3695184 C26.3691942,15.1024194 26.1988434,16.0423058 26.2823631,17.0156254 C26.4177607,18.5990072 27.2065989,19.9036537 28.2003731,20.3394124 L19.5135871,22.7079111 C19.0080537,21.1391798 18.6592578,19.4352131 18.5058317,17.6444703 C18.4370291,16.8420733 18.4105383,16.0513215 18.421944,15.2752202 L27.2533258,13.6937167 C27.0700975,13.8800411 26.903794,14.1046823 26.7621416,14.3695184 Z M28.4700645,13.4750861 C28.5098008,13.4713295 28.5502729,13.4694513 28.5900091,13.4694513 C29.7125582,13.4694513 30.7103796,14.8473503 30.8612302,16.6061625 C31.0175997,18.436349 30.2004311,20.0099638 29.0392495,20.1136443 C28.9995133,20.1174008 28.9594091,20.1192791 28.9196728,20.1192791 C28.9193049,20.1192791 28.9193049,20.1192791 28.9193049,20.1192791 C27.7963879,20.1189034 26.7993023,18.7413801 26.6488197,16.9825679 C26.5715547,16.0825008 26.7264525,15.2184965 27.0848147,14.5494566 C27.4299314,13.9055856 27.9218514,13.5242968 28.4700645,13.4750861 Z M29.1003256,20.4829122 C30.4476788,20.3390367 31.4009809,18.5956263 31.2276867,16.573105 C31.0617511,14.6384867 29.9178622,13.1279818 28.6220189,13.0986807 L28.6194434,13.0675015 L28.3850731,13.1091991 C28.3111195,13.1182147 28.2382697,13.1302357 28.1661558,13.1482671 L18.432614,14.8916775 C18.6588898,7.71292876 22.2138126,1.94926882 27.0329368,1.51839363 C27.2235236,1.5014892 27.4170539,1.49284916 27.6080086,1.49284916 C32.8410521,1.49284916 37.4817311,7.81548231 38.1730683,15.886785 C38.5244398,19.9878002 37.8150741,23.930665 36.1759538,26.9884889 C34.5633242,29.9971021 32.2442725,31.7818344 29.6459632,32.013613 C29.4557443,32.0305174 29.2629499,32.0391575 29.0723631,32.0391575 C25.088436,32.0391575 21.4499935,28.3731497 19.6331638,23.0629042 L29.1003256,20.4829122 Z" id="Shape"></path>
                </g>
            </g>
        </g>
    </g>
</svg>