<?xml version="1.0" encoding="UTF-8"?>
<svg width="305px" height="180px" viewBox="0 0 305 180" version="1.1" xmlns="http://www.w3.org/2000/svg" xmlns:xlink="http://www.w3.org/1999/xlink">
    <title>example</title>
    <g id="plugin-NEW-designs-oct-2021" stroke="none" stroke-width="1" fill="none" fill-rule="evenodd">
        <g id="Message-block-final" transform="translate(-760.000000, -366.000000)">
            <g id="example" transform="translate(760.000000, 366.000000)">
                <g id="Group" transform="translate(12.000000, 144.000000)">
                    <rect id="Rectangle" fill="#F77355" x="0" y="0" width="82" height="24" rx="3"></rect>
                    <rect id="Rectangle" fill="#FFFFFF" x="6.36893204" y="4" width="61.3009709" height="4" rx="2"></rect>
                    <rect id="Rectangle" fill="#FFFFFF" x="6.36893204" y="10.4" width="47.7669903" height="3.2" rx="1.6"></rect>
                    <rect id="Rectangle" fill="#FFFFFF" x="6.36893204" y="16" width="47.7669903" height="3.2" rx="1.6"></rect>
                </g>
                <rect id="Rectangle" fill="#324760" opacity="0.494693574" x="109" y="16" width="113" height="8" rx="2"></rect>
                <rect id="Rectangle" fill="#324760" opacity="0.494693574" x="109" y="59" width="113" height="8" rx="2"></rect>
                <rect id="Rectangle" fill="#324760" opacity="0.494693574" x="109" y="29" width="113" height="8" rx="2"></rect>
                <rect id="Rectangle" fill="#324760" opacity="0.494693574" x="109" y="43" width="113" height="9" rx="2"></rect>
                <rect id="Rectangle" fill="#324760" opacity="0.494693574" x="109" y="73" width="113" height="8" rx="2"></rect>
                <rect id="Rectangle" fill="#324760" opacity="0.500470843" x="109" y="116" width="113" height="8" rx="2"></rect>
                <rect id="Rectangle" fill="#324760" opacity="0.494693574" x="109" y="88" width="113" height="8" rx="2"></rect>
                <rect id="Rectangle" fill="#324760" opacity="0.494693574" x="109" y="102" width="113" height="9" rx="2"></rect>
                <rect id="Rectangle" fill="#324760" opacity="0.494693574" x="109" y="158" width="113" height="8" rx="2"></rect>
                <rect id="Rectangle" fill="#324760" opacity="0.494693574" x="109" y="129" width="113" height="8" rx="2"></rect>
                <rect id="Rectangle" fill="#324760" opacity="0.494693574" x="109" y="143" width="113" height="9" rx="2"></rect>
            </g>
        </g>
    </g>
</svg>